<svg width="500" height="500" viewBox="0 0 500 500" fill="none" xmlns="http://www.w3.org/2000/svg">
<path d="M399 55C401.739 57.4539 403.359 60.1232 405.152 63.3203C406.061 64.9398 406.061 64.9398 406.988 66.592C407.638 67.7692 408.288 68.9468 408.938 70.125C409.269 70.7251 409.601 71.3253 409.942 71.9436C424.756 98.8149 438.032 126.978 445 157C445.209 157.898 445.418 158.796 445.633 159.722C448.685 173.577 449.385 187.305 449.438 201.438C449.447 202.622 449.447 202.622 449.456 203.83C449.531 218.672 448.049 233.436 443.25 247.562C442.993 248.341 442.736 249.12 442.472 249.923C429.999 286.995 407.066 319.528 374 341C373.384 341.403 372.768 341.806 372.133 342.221C357.121 351.886 340.622 358.451 324.172 365.234C292.719 378.216 257.588 393.291 242 426C240.093 430.921 238.522 435.949 237 441C236.67 441 236.34 441 236 441C235.655 428.523 236.12 417.2 239 405C239.293 403.684 239.586 402.367 239.879 401.051C247.213 369.094 262.816 339.388 282 313C282.684 312.05 282.684 312.05 283.382 311.081C286.547 306.689 289.756 302.333 293 298C293.405 297.458 293.811 296.916 294.229 296.358C305.207 281.746 317.059 267.827 329 254C335.264 246.737 341.504 239.465 347.543 232.012C349.405 229.729 351.282 227.464 353.176 225.207C369.959 205.146 385.439 183.979 398 161C388.049 170.754 388.049 170.754 378.703 181.078C375.765 184.394 372.56 187.446 369.41 190.559C366.731 193.272 364.254 196.108 361.777 199.004C359.05 202.067 356.106 204.902 353.188 207.781C351.203 209.794 349.339 211.854 347.5 214C344.953 216.971 342.286 219.751 339.5 222.5C336.734 225.228 334.087 227.985 331.562 230.938C328.844 234.11 325.972 237.063 323 240C319.541 243.423 316.271 246.91 313.109 250.605C310.145 253.971 307.069 257.23 304 260.5C299.235 265.587 294.52 270.693 290 276C289.196 276.926 288.391 277.851 287.562 278.805C267.326 302.227 250.801 327.831 238 356C235.763 352.644 234.936 349.48 234 345.625C233.835 344.984 233.67 344.344 233.5 343.684C230.578 331.882 229.689 320.307 229.813 308.188C229.821 306.759 229.829 305.331 229.836 303.903C229.903 294.577 230.07 285.287 231 276C231.166 274.231 231.166 274.231 231.336 272.426C233.048 257.227 236.787 241.992 243 228C243.501 226.863 244.003 225.726 244.52 224.555C260.314 190.894 293.217 173.042 323.996 155.09C355.358 136.796 385.213 116.653 396.203 80.0781C397.705 74.2764 398.234 68.5832 398.562 62.625C398.627 61.5209 398.627 61.5209 398.693 60.3945C398.798 58.5965 398.9 56.7983 399 55Z" fill="#006737"/>
<path d="M88 77C89.0151 80.0453 88.9871 81.6645 88.8125 84.8125C88.7257 101.28 97.0126 115.84 108.258 127.293C109.163 128.186 110.068 129.08 111 130C112.079 131.077 112.079 131.077 113.18 132.176C123.263 141.669 135.547 148.365 147.454 155.262C175.292 171.394 201.113 188.156 211.25 220.562C215.158 235.89 216.292 250.991 216.375 266.75C216.383 267.479 216.391 268.207 216.399 268.958C216.502 281.249 216.082 294.612 211 306C208.288 303.288 206.961 300.037 205.312 296.625C193.63 273.011 177.516 253.145 159.699 233.914C157.036 231.038 154.392 228.146 151.75 225.25C142.645 215.309 133.507 205.395 123.902 195.934C121.434 193.425 119.168 190.769 116.879 188.098C113.87 184.738 110.626 181.618 107.418 178.449C104.701 175.697 102.178 172.823 99.6641 169.887C96.9224 166.778 93.9645 163.894 91 161C90.01 160.01 90.01 160.01 89 159C100.333 178.358 113.552 195.873 128 213C128.967 214.152 129.935 215.305 130.902 216.457C134.56 220.803 138.241 225.129 141.961 229.422C147.495 235.817 152.883 242.285 158.069 248.967C160.792 252.476 163.58 255.911 166.437 259.312C192.168 290.766 213.033 329.527 212 371C210.534 368.202 209.424 365.413 208.375 362.438C197.863 336.119 171.329 324.954 147.187 314.562C122.769 304.047 102.94 294.122 84 275C83.3052 274.303 82.6104 273.605 81.8945 272.887C65.3736 255.436 53.8658 230.826 51 207C50.8891 206.192 50.7783 205.384 50.6641 204.551C48.877 189.168 49.4973 174.054 53 159C53.205 157.953 53.4099 156.907 53.6211 155.828C59.4043 127.523 73.7635 101.787 88 77Z" fill="#85BB41"/>
<path d="M398 160C398 163.701 397.426 164.261 395 167C391.158 170.519 387.091 173.777 383 177C384.321 174.068 385.746 172.013 388.039 169.766C388.619 169.192 389.199 168.618 389.797 168.027C390.4 167.441 391.003 166.854 391.625 166.25C392.236 165.648 392.847 165.046 393.477 164.426C394.98 162.946 396.489 161.472 398 160Z" fill="#000B06"/>
</svg>
