<svg width="500" height="500" viewBox="0 0 500 500" fill="none" xmlns="http://www.w3.org/2000/svg">
<path d="M225.25 94.875C234.775 99.4124 242.044 106.772 247 116C250.414 115.025 253.03 113.98 256 112C258.979 110.014 261.614 109.077 265 108C265.66 107.34 266.32 106.68 267 106C270.5 105.5 270.5 105.5 274 105C274.66 104.34 275.32 103.68 276 103C278.757 102.983 281.267 103.523 284 104C284.33 104.33 284.66 104.66 285 105C288.044 104.991 291.076 104.867 294.117 104.742C297.458 105.041 297.798 105.698 300 108C302.068 108.058 302.068 108.058 304 107C305.595 105.26 305.595 105.26 306.938 103.125C311.089 97.3905 311.089 97.3905 315 96C325.637 95.0049 333.247 98.4619 342.547 103.078C349.693 106.535 356.142 108.286 364.188 108.188C365.357 108.181 366.526 108.175 367.731 108.168C370.614 108.02 373.187 107.599 376 107C379.845 106.761 383.308 106.769 387 108C386.691 108.763 386.381 109.526 386.063 110.313C382.73 118.743 382.589 128.496 385.875 137C388.501 142.576 391.933 147.573 395.402 152.647C405.126 166.894 409.318 184.393 406.598 201.535C404.451 208.818 397.842 212.99 391.625 216.625C388.174 218.662 387.308 220.176 386 224C382.246 227.003 378.719 227.537 374 228C374 229.65 374 231.3 374 233C374.627 232.905 375.253 232.809 375.898 232.711C376.716 232.6 377.533 232.489 378.375 232.375C379.187 232.259 379.999 232.143 380.836 232.023C381.55 232.016 382.264 232.008 383 232C385 234 385 234 385 237C386.32 237.66 387.64 238.32 389 239C389 240.32 389 241.64 389 243C390.32 243.33 391.64 243.66 393 244C393.083 244.743 393.165 245.485 393.25 246.25C393.775 249.142 393.775 249.142 396.125 250.938C396.744 251.618 397.363 252.299 398 253C397.799 256.284 397.038 258.885 396 262C395.876 263.073 395.753 264.145 395.625 265.25C394.933 269.404 393.937 272.275 392 276C391.01 276.33 390.02 276.66 389 277C388.897 277.949 388.794 278.898 388.688 279.875C388 283 388 283 385 285C383.68 285 382.36 285 381 285C380.67 286.32 380.34 287.64 380 289C378.68 289.33 377.36 289.66 376 290C376.083 291.093 376.165 292.186 376.25 293.313C376 297 376 297 374 298.938C373.34 299.288 372.68 299.639 372 300C372.302 307.203 377.042 312.107 381.164 317.66C387.784 326.889 390.048 335.686 389 347C386.528 361.964 386.528 361.964 380.313 367.313C372.579 371.252 364.375 368.031 356.438 366C340.425 362.178 329.354 361.616 314.094 368.273C303.9 372.707 296.666 372.973 286.418 369.07C284 368 284 368 281 366C278.78 365.796 278.78 365.796 276.438 365.938C272.195 366.098 272.195 366.098 270 365C269.626 366.033 269.626 366.033 269.245 367.087C267.807 370.453 266.001 373.506 264.086 376.613C263.524 377.535 263.524 377.535 262.951 378.475C261.763 380.423 260.569 382.368 259.375 384.313C258.565 385.638 257.755 386.965 256.945 388.291C254.968 391.53 252.985 394.766 251 398C246.489 397.257 244.433 396.017 241.063 392.875C240.192 392.065 239.322 391.256 238.426 390.422C235.919 387.919 233.66 385.348 231.547 382.508C227.268 378.337 221.063 376.978 215.5 375.25C203.443 371.348 192.699 366.311 183 358C181.969 357.196 180.938 356.391 179.875 355.563C176.885 352.897 174.318 350.089 171.731 347.039C170.631 345.743 169.51 344.465 168.363 343.211C162.465 336.704 158.8 329.865 158.898 320.941C159.008 318.857 159.339 316.982 160 315C156.703 313.352 153.06 313.811 149.438 313.813C148.569 313.809 147.7 313.805 146.805 313.802C141.588 313.829 136.448 314.097 131.254 314.59C130.131 314.696 129.009 314.803 127.852 314.913C125.642 315.135 123.434 315.377 121.228 315.64C120.215 315.743 119.201 315.847 118.156 315.953C117.257 316.058 116.358 316.163 115.432 316.271C113 316 113 316 110.785 314.259C105.816 307.972 105.477 300.297 105.563 292.563C105.569 291.61 105.575 290.658 105.581 289.677C105.936 273.291 109.195 258.977 121.262 247.41C131.953 238 131.953 238 137 238C137.248 239.114 137.495 240.228 137.75 241.375C138.163 242.571 138.575 243.768 139 245C139.681 245.309 140.361 245.619 141.063 245.938C141.702 246.288 142.341 246.639 143 247C143.425 249.059 143.563 251.024 143.629 253.125C143.751 253.744 143.874 254.363 144 255C144.99 255.66 145.98 256.32 147 257C149.318 263.344 149.105 269.321 148.875 276.023C148.669 279.12 148.669 279.12 151 281C151.289 282.155 151.578 283.31 151.875 284.5C152.583 288.064 152.583 288.064 155 289.125C155.99 289.558 155.99 289.558 157 290C158.25 292.625 158.25 292.625 159 295C159.949 294.794 160.898 294.588 161.875 294.375C163.422 294.189 163.422 294.189 165 294C165.99 294.99 165.99 294.99 167 296C170.084 296.167 170.084 296.167 173 296C173.99 298.475 173.99 298.475 175 301C176.454 300.969 176.454 300.969 177.938 300.938C181 301 181 301 182 302C185.481 301.824 185.481 301.824 189 301C191.403 297.396 191.909 293.993 192.625 289.813C192.759 289.063 192.893 288.313 193.031 287.541C193.361 285.695 193.681 283.848 194 282C194.44 282.491 194.879 282.982 195.332 283.488C196.958 285.275 196.958 285.275 199.688 285.188C200.451 285.126 201.214 285.064 202 285C202.227 285.928 202.454 286.856 202.688 287.813C204.23 291.558 205.394 292.329 209 294C209.99 294.33 210.98 294.66 212 295C213.188 297.563 213.188 297.563 214 300C214.627 299.905 215.253 299.809 215.898 299.711C216.716 299.6 217.533 299.489 218.375 299.375C219.187 299.259 219.999 299.143 220.836 299.023C221.55 299.016 222.264 299.008 223 299C223.66 299.66 224.32 300.32 225 301C227.437 300.73 227.437 300.73 230 300C230.681 299.835 231.361 299.67 232.063 299.5C232.702 299.335 233.341 299.17 234 299C234.639 298.897 235.279 298.794 235.938 298.688C238.807 297.731 240.68 295.914 243 294C243.722 293.711 244.444 293.423 245.188 293.125C247.963 291.402 248.205 289.048 249 286C249.495 286.289 249.99 286.578 250.5 286.875C253.338 288.152 256.037 288.645 259.098 289.145C261.863 290.388 262.643 292.374 264 295C265.06 294.905 266.119 294.809 267.211 294.711C268.599 294.598 269.987 294.486 271.375 294.375C272.423 294.278 272.423 294.278 273.492 294.18C275.324 294.039 277.163 294.012 279 294C279.66 294.66 280.32 295.32 281 296C283.108 295.682 283.108 295.682 285 295C285.33 293.35 285.66 291.7 286 290C287.279 289.876 288.558 289.753 289.875 289.625C293.348 289.31 293.348 289.31 296 287C296.31 285.09 296.31 285.09 296.375 283C296.586 280.816 296.586 280.816 297 279C298.317 278.301 299.65 277.633 301 277C301.995 273.535 301.995 273.535 302 270C301.34 269.34 300.68 268.68 300 268C300.375 264.375 300.375 264.375 301 261C300.34 260.67 299.68 260.34 299 260C298.324 258.109 298.324 258.109 297.688 255.75C296.29 251.233 294.596 249.013 291 246C291.606 245.914 292.212 245.827 292.836 245.738C299.243 244.664 305.793 243.071 311 239C311.386 237.345 311.721 235.677 312 234C313.516 232.793 313.516 232.793 315.063 231.563C316.032 230.717 317.001 229.871 318 229C318.25 225.958 318.25 225.958 318 223C318.465 222.41 318.931 221.819 319.41 221.211C323.016 216.196 323.503 207.921 322.688 201.875C322.033 198.955 322.033 198.955 321 196C321.085 194.267 321.236 192.536 321.438 190.813C321.59 189.461 321.59 189.461 321.746 188.082C321.83 187.395 321.914 186.708 322 186C321.361 185.732 320.721 185.464 320.063 185.188C318 184 318 184 317 181C315.001 179.94 315.001 179.94 312.625 179.125C308.523 177.444 306.975 176.06 305 172C304.01 171.67 303.02 171.34 302 171C302 170.34 302 169.68 302 169C300.68 168.67 299.36 168.34 298 168C298.495 167.649 298.99 167.299 299.5 166.938C301.731 164.056 301.2 161.53 301 158C299.35 157.67 297.7 157.34 296 157C295.598 155.608 295.598 155.608 295.188 154.188C293.787 150.428 292.549 148.774 289 147C289.041 146.216 289.083 145.433 289.125 144.625C289.287 141.839 289.287 141.839 287 140C284.883 139.902 284.883 139.902 282.563 140.25C281.78 140.338 280.998 140.425 280.191 140.516C277.725 140.922 277.725 140.922 275 143C274.01 143 273.02 143 272 143C272 142.34 272 141.68 272 141C271.34 141 270.68 141 270 141C269.89 140.408 269.781 139.817 269.668 139.207C268.478 132.58 268.478 132.58 265 127C262.667 126.955 260.333 126.961 258 127C256.234 126.094 256.234 126.094 254.5 124.938C251.476 122.983 250.997 123 247.063 123.25C246.052 123.498 245.041 123.745 244 124C244 122.35 244 120.7 244 119C240.7 119.66 237.4 120.32 234 121C233.01 119.515 233.01 119.515 232 118C229.69 118.66 227.38 119.32 225 120C225 119.34 225 118.68 225 118C223.001 117.957 221 117.959 219 118C218.505 118.495 218.505 118.495 218 119C216.634 119.349 215.256 119.654 213.875 119.938C210.986 120.55 208.214 121.23 205.375 122.063C202 123 202 123 198.25 123.438C194.722 124.048 194.251 124.456 192 127C191.01 127.474 190.02 127.949 189 128.438C185.969 129.742 185.969 129.742 184.5 132C182.473 134.703 180.001 135.531 177 137C174.829 139.914 174.829 139.914 174.063 143.438C173 147 173 147 171.313 149.125C169.721 150.979 169.721 150.979 170.188 153.625C170.857 156.15 170.857 156.15 173 158C172.34 160.31 171.68 162.62 171 165C169.824 164.691 169.824 164.691 168.625 164.375C163.816 163.878 159.667 164.884 155 166C155 168.64 155 171.28 155 174C153.824 174.309 153.824 174.309 152.625 174.625C149.069 176.488 149.175 178.254 148 182C145.375 184.875 145.375 184.875 143 187C143.371 187.763 143.743 188.526 144.125 189.313C144.558 190.643 144.558 190.643 145 192C144.34 192.99 143.68 193.98 143 195C143.157 197.619 143.157 197.619 144 200C144.99 200.495 144.99 200.495 146 201C145.807 209.066 145.807 209.066 142.625 212.75C141.759 213.493 140.893 214.235 140 215C138.947 216.634 137.927 218.292 137 220C132.263 218.885 130.075 216.28 127.426 212.426C122.678 204.348 121.639 196.598 121.563 187.375C121.552 186.505 121.542 185.634 121.532 184.738C121.711 171.356 126.934 161.834 136.375 152.563C137.043 151.945 137.711 151.328 138.398 150.691C141.338 147.588 141.14 144.331 141.231 140.231C141.071 137.854 141.071 137.854 140.016 135.152C138.923 131.76 138.633 128.932 138.563 125.375C138.503 123.716 138.503 123.716 138.441 122.023C139 119 139 119 141.074 116.645C144.647 114.636 147.167 114.498 151.25 114.313C158.776 113.705 164.091 111.212 170.556 107.457C176.245 104.215 181.793 102.377 188.113 100.754C192.354 99.6227 195.555 98.225 199.125 95.6875C206.918 90.5719 216.819 91.8203 225.25 94.875Z" fill="#F2D997"/>
<path d="M219 117C221.007 117.287 223.009 117.619 225 118C225 118.66 225 119.32 225 120C225.743 119.464 226.485 118.928 227.25 118.375C228.158 117.921 229.065 117.468 230 117C232.125 117.812 232.125 117.812 234 119C234.99 119 235.98 119 237 119C239.333 119 241.667 119 244 119C244 120.65 244 122.3 244 124C244.99 123.34 245.98 122.68 247 122C250.404 122.222 252.554 122.714 255.438 124.562C258.023 126.33 258.023 126.33 261.5 125.688C265 126 265 126 266.559 127.523C269.665 132.116 270.571 135.519 270 141C270.66 141 271.32 141 272 141C272 141.66 272 142.32 272 143C273.207 142.288 273.207 142.288 274.438 141.562C278.507 139.778 282.52 138.607 287 139C288.789 140.324 288.789 140.324 290 142C289.688 144.688 289.688 144.688 289 147C289.784 147.268 290.567 147.536 291.375 147.812C294 149 294 149 296 152C296.125 154.688 296.125 154.688 296 157C296.804 156.979 297.609 156.959 298.438 156.938C301 157 301 157 302 158C302.473 164.389 302.473 164.389 300.5 166.938C299.757 167.463 299.757 167.463 299 168C299.99 168.33 300.98 168.66 302 169C302 169.66 302 170.32 302 171C302.598 171.062 303.196 171.124 303.812 171.188C306 172 306 172 307.188 174.312C309.87 178.289 313.614 179.354 318 181C318 181.99 318 182.98 318 184C319.32 184.33 320.64 184.66 322 185C322.92 188.272 322.963 190.814 322.438 194.125C321.572 198.056 321.572 198.056 324 201C324.139 209.566 322.821 217.358 319 225C318.814 226.237 318.814 226.237 318.625 227.5C317.833 230.67 316.5 231.954 314 234C313.34 234 312.68 234 312 234C312.165 234.722 312.33 235.444 312.5 236.188C312 239 312 239 310.395 240.375C304.776 243.917 299.607 246.078 293 247C293.804 247.846 294.609 248.691 295.438 249.562C298.216 252.852 298.741 255.686 299 260C299.99 260.33 300.98 260.66 302 261C301.794 262.114 301.588 263.227 301.375 264.375C301.251 265.571 301.127 266.768 301 268C301.66 268.66 302.32 269.32 303 270C302.625 273.625 302.625 273.625 302 277C299.525 277.99 299.525 277.99 297 279C297.062 280.258 297.124 281.516 297.188 282.812C297.165 285.331 297.135 286.73 296 289C292.72 290.64 289.629 290.178 286 290C286.041 290.784 286.082 291.567 286.125 292.375C286 295 286 295 284 297C281.737 296.646 280.049 296.025 278 295C274.417 295.297 270.855 295.712 267.285 296.137C264 296 264 296 262.059 294.145C261 292 261 292 261 290C260.093 290.062 259.185 290.124 258.25 290.188C254.656 289.98 253.655 289.275 251 287C250.34 287 249.68 287 249 287C248.794 287.908 248.588 288.815 248.375 289.75C246.653 293.82 244.769 294.814 241 297C240.34 297.577 239.68 298.155 239 298.75C236.289 300.444 234.14 300.068 231 300C230.34 300.66 229.68 301.32 229 302C226.17 301.637 223.709 300.903 221 300C219.824 300.186 218.649 300.371 217.438 300.562C216.303 300.707 215.169 300.851 214 301C213.34 300.34 212.68 299.68 212 299C212 297.68 212 296.36 212 295C211.093 294.917 210.185 294.835 209.25 294.75C205.533 293.892 204.303 292.986 202 290C201.25 287.75 201.25 287.75 201 286C199.793 285.783 199.793 285.783 198.563 285.562C196 285 196 285 195 284C194.758 285.12 194.515 286.24 194.266 287.395C193.928 288.867 193.589 290.34 193.25 291.812C193.093 292.55 192.935 293.288 192.773 294.049C192.006 297.31 191.41 299.587 189.02 301.996C185.425 303.783 182.712 303.237 179 302C177.732 301.845 177.732 301.845 176.438 301.688C174 301 174 301 172.688 298.938C172.347 297.978 172.347 297.978 172 297C171.237 297.041 170.474 297.082 169.688 297.125C167 297 167 297 164 295C162.332 295.326 160.665 295.658 159 296C158.34 295.34 157.68 294.68 157 294C157 292.68 157 291.36 157 290C156.237 289.835 155.474 289.67 154.688 289.5C151.133 287.516 150.749 285.541 149.578 281.777C149.147 279.996 149.147 279.996 148 279C147.94 275.57 147.98 272.155 148.039 268.727C148.06 266.818 148.033 264.909 148 263C147.67 262.67 147.34 262.34 147 262C146.959 260.334 146.957 258.666 147 257C145.68 256.34 144.36 255.68 143 255C143 252.36 143 249.72 143 247C142.072 246.845 142.072 246.845 141.125 246.688C139 246 139 246 137 243C136.317 240.671 135.649 238.338 135 236C134.67 235.67 134.34 235.34 134 235C133.582 229.676 134.51 226.655 137 222C136.67 221.34 136.34 220.68 136 220C137.491 216.935 138.991 215.008 141.563 212.75C144.79 209.108 145.311 205.719 146 201C144.68 200.34 143.36 199.68 142 199C142.248 197.608 142.248 197.608 142.5 196.188C143.066 192.581 143.159 190.476 142 187C143.822 184.424 145.771 182.229 148 180C148.165 179.34 148.33 178.68 148.5 178C149 176 149 176 151 174C152.32 174 153.64 174 155 174C155 171.36 155 168.72 155 166C156.558 165.465 158.121 164.947 159.688 164.438C160.558 164.147 161.428 163.857 162.324 163.559C165.246 162.949 167.144 163.223 170 164C171.288 161.222 171.288 161.222 172 158C171.047 156.633 170.046 155.297 169 154C169.138 151.181 169.318 149.623 171.438 147.688C173.261 145.718 173.372 144.656 173.875 142.062C174.593 138.788 174.966 138.035 177.438 135.5C180 134 180 134 183 134C183.248 133.402 183.495 132.804 183.75 132.188C186.063 128.14 190.084 126.329 194 124C194.33 123.67 194.66 123.34 195 123C198.291 122.461 201.592 122.034 204.898 121.598C208.152 121.178 208.152 121.178 211 119C213.329 118.639 215.663 118.303 218 118C218.33 117.67 218.66 117.34 219 117Z" fill="#FDE8B1"/>
<path d="M227 124C227.495 125.485 227.495 125.485 228 127C228.495 126.835 228.99 126.67 229.5 126.5C233.035 125.793 236.397 125.94 240 126C240 126.99 240 127.98 240 129C241.423 128.938 241.423 128.938 242.875 128.875C246 129 246 129 248 131C248 132.32 248 133.64 248 135C248.99 135.66 249.98 136.32 251 137C251.25 140.062 251.25 140.062 251 143C250.505 143.495 250.505 143.495 250 144C251.32 144.99 252.64 145.98 254 147C253.125 152.875 253.125 152.875 252 154C251.733 155.643 251.487 157.29 251.25 158.937C250.742 161.676 250.742 161.676 250 164C247.375 165.625 247.375 165.625 245 166C244.907 167.64 244.907 167.64 244.813 169.312C244 173 244 173 241.75 174.937C238.926 176.028 236.995 176.257 234 176C233.856 176.639 233.711 177.279 233.563 177.937C233 180 233 180 232 181C229.736 180.991 227.487 180.867 225.227 180.742C222.45 181.064 221.9 182.059 220 184C216.375 183.625 216.375 183.625 213 183C212.67 183.33 212.34 183.66 212 184C209.75 184.375 209.75 184.375 207 184C204.188 181.5 204.188 181.5 202 179C201.67 179.33 201.34 179.66 201 180C198.667 180.041 196.333 180.042 194 180C193.957 181.666 193.959 183.334 194 185C194.33 185.33 194.66 185.66 195 186C194.4 192.6 194.4 192.6 192 195C193.32 195.66 194.64 196.32 196 197C195.979 197.804 195.959 198.609 195.938 199.437C195.704 201.933 195.704 201.933 197 203C197.088 202.251 197.175 201.502 197.266 200.73C198.14 197.48 199.195 196.45 201.75 194.312C202.426 193.731 203.101 193.15 203.797 192.551C207.803 189.731 211.912 188.679 216.688 187.812C217.64 187.633 218.593 187.454 219.574 187.269C222 187 222 187 224 188C224.99 188.124 225.98 188.247 227 188.375C230 189 230 189 232 192C234.059 192.724 234.059 192.724 236 193C236.33 194.32 236.66 195.64 237 197C237.949 196.959 238.898 196.917 239.875 196.875C243 197 243 197 245 199C244.625 202.625 244.625 202.625 244 206C245.279 205.959 246.558 205.917 247.875 205.875C250.055 205.805 250.055 205.805 252 206C252.66 206.66 253.32 207.32 254 208C253.814 208.804 253.629 209.609 253.438 210.437C253.293 211.283 253.149 212.129 253 213C253.495 213.495 253.99 213.99 254.5 214.5C254.995 214.995 255.49 215.49 256 216C255.756 219.342 255.395 220.605 253 223C252.456 225.519 252.111 228.037 251.758 230.59C250.825 233.556 249.605 234.402 247 236C247.66 236.66 248.32 237.32 249 238C249.375 240.437 249.375 240.437 249 243C247.438 244.812 247.438 244.812 245 246C241.25 246.187 241.25 246.187 238 246C237.856 246.639 237.711 247.279 237.563 247.937C237 250 237 250 236 251C233.5 251.125 233.5 251.125 231 251C230.67 250.67 230.34 250.34 230 250C229.381 250.804 228.763 251.609 228.125 252.437C226 255 226 255 224 256C216.533 256.356 216.533 256.356 213 254C212.34 254.66 211.68 255.32 211 256C208.375 256.125 208.375 256.125 206 256C205.67 255.01 205.34 254.02 205 253C203.35 253 201.7 253 200 253C199.773 252.381 199.546 251.762 199.313 251.125C197.616 248.377 195.975 248.068 193 247C191.374 243.747 191.886 240.608 192 237C192.33 236.67 192.66 236.34 193 236C191.35 236 189.7 236 188 236C187.909 236.94 187.909 236.94 187.816 237.898C187.733 238.716 187.649 239.533 187.563 240.375C187.481 241.187 187.4 241.999 187.316 242.836C187 245 187 245 186 247C186.021 247.804 186.041 248.609 186.063 249.437C186 252 186 252 184 255C182.68 255 181.36 255 180 255C178.873 258.946 178.678 262.033 180 266C180.188 269.562 180.188 269.562 180 273C179.34 273.66 178.68 274.32 178 275C176.68 275 175.36 275 174 275C173.67 276.65 173.34 278.3 173 280C170.674 280.381 168.34 280.713 166 281C165.67 280.67 165.34 280.34 165 280C163.299 279.783 163.299 279.783 161.563 279.562C158 279 158 279 156 277C155.617 273.267 155.851 272.224 158 269C157.051 269.041 156.103 269.082 155.125 269.125C152 269 152 269 150 267C150.353 263.558 151.046 261.931 153 259C151.68 258.67 150.36 258.34 149 258C148.67 255.69 148.34 253.38 148 251C147.01 250.67 146.02 250.34 145 250C145.33 248.02 145.66 246.04 146 244C145.34 244 144.68 244 144 244C143.845 242.391 143.845 242.391 143.688 240.75C143.306 237.066 143.306 237.066 141.375 234.875C140 233 140 233 140.188 230.437C141 228 141 228 143 225C143.103 224.196 143.206 223.391 143.313 222.562C144.271 218.989 145.925 217.957 149 216C151.813 215.25 151.813 215.25 154 215C153.34 214.649 152.68 214.299 152 213.937C150 212 150 212 149.438 208.687C150.163 203.932 151.69 202.393 155 199C154.34 199 153.68 199 153 199C152.31 197.343 151.647 195.674 151 194C150.567 193.041 150.567 193.041 150.125 192.062C149.92 188.672 152.05 186.59 154 184C154.63 183.1 155.261 182.2 155.91 181.273C163.449 170.592 163.449 170.592 168.508 169.418C169.372 169.342 170.235 169.266 171.125 169.187C171.994 169.099 172.863 169.01 173.758 168.918C176 169 176 169 178 171C178.99 171 179.98 171 181 171C180.856 169.701 180.711 168.401 180.563 167.062C180.481 166.332 180.4 165.601 180.316 164.848C180.181 162.989 180.181 162.989 179 162C178.411 157.141 180.201 153.423 182 149C182.66 149 183.32 149 184 149C183.938 147.907 183.876 146.814 183.813 145.687C184 142 184 142 185.375 140.062C187 139 187 139 189 139C189.206 138.113 189.413 137.226 189.625 136.312C191.358 132.139 193.236 130.461 197 128C200.25 127.812 200.25 127.812 203 128C203.66 127.34 204.32 126.68 205 126C206.32 126 207.64 126 209 126C209 126.66 209 127.32 209 128C209.66 128 210.32 128 211 128C211.33 127.01 211.66 126.02 212 125C213.32 125 214.64 125 216 125C216 125.66 216 126.32 216 127C217.052 126.257 217.052 126.257 218.125 125.5C221.371 123.806 223.393 123.748 227 124Z" fill="#FEF0D1"/>
<path d="M137 238C137.248 239.114 137.495 240.227 137.75 241.375C138.163 242.571 138.575 243.768 139 245C140.021 245.464 140.021 245.464 141.063 245.938C142.022 246.463 142.022 246.463 143 247C143.425 249.059 143.563 251.024 143.629 253.125C143.751 253.744 143.874 254.363 144 255C144.99 255.66 145.98 256.32 147 257C149.318 263.344 149.105 269.321 148.875 276.023C148.669 279.12 148.669 279.12 151 281C151.466 282.665 151.93 284.33 152.375 286C154.174 291.758 157.189 296.372 161 301C161 301.66 161 302.32 161 303C165.393 304.563 165.393 304.563 170 305C173 307 173 307 173.688 310.188C174 314 174 314 173.938 317.812C173.634 321.096 173.634 321.096 176 323C176 324.32 176 325.64 176 327C176.87 326.84 176.87 326.84 177.758 326.676C183.159 325.847 186.27 325.882 191 329C191.763 329.722 192.526 330.444 193.313 331.188C196.699 333.471 198.837 333.298 202.816 333.043C205.076 332.999 206.834 333.4 209 334C209.66 334 210.32 334 211 334C211.159 334.808 211.317 335.616 211.481 336.449C213.294 344.81 213.294 344.81 219 351C220.813 352.625 220.813 352.625 222 354C222 354.99 222 355.98 222 357C223.299 356.814 224.599 356.629 225.938 356.438C228.152 356.121 228.152 356.121 230 356C230.33 356.33 230.66 356.66 231 357C232.686 357.072 234.375 357.084 236.063 357.062C236.982 357.053 237.901 357.044 238.848 357.035C239.558 357.024 240.268 357.012 241 357C241.33 357.66 241.66 358.32 242 359C244.437 358.73 244.437 358.73 247 358C247.99 356.515 247.99 356.515 249 355C251.291 354.316 253.546 353.993 255.906 353.625C258.374 353.131 258.374 353.131 260 350C260.99 350 261.98 350 263 350C262.707 351.986 262.414 353.971 262.121 355.957C261.861 358.203 261.861 358.203 263 361C264.98 361 266.96 361 269 361C270.058 364.79 270.198 366.552 268.585 370.204C267.89 371.348 267.177 372.482 266.449 373.605C266.075 374.211 265.701 374.817 265.316 375.441C264.122 377.367 262.905 379.277 261.688 381.188C260.879 382.483 260.073 383.779 259.268 385.076C256.564 389.419 253.838 393.743 251 398C246.495 397.502 244.346 395.936 241.063 392.875C240.192 392.065 239.322 391.256 238.426 390.422C235.919 387.919 233.66 385.348 231.547 382.508C227.268 378.337 221.063 376.978 215.5 375.25C203.443 371.348 192.699 366.311 183 358C181.969 357.196 180.938 356.391 179.875 355.562C176.885 352.897 174.318 350.089 171.731 347.039C170.631 345.743 169.51 344.465 168.363 343.211C162.465 336.704 158.8 329.865 158.898 320.941C159.008 318.857 159.339 316.982 160 315C156.703 313.351 153.06 313.811 149.438 313.812C148.134 313.807 148.134 313.807 146.805 313.802C141.588 313.829 136.448 314.096 131.254 314.59C130.131 314.696 129.009 314.803 127.852 314.913C125.642 315.135 123.434 315.377 121.228 315.64C120.215 315.743 119.201 315.847 118.156 315.953C117.257 316.058 116.358 316.163 115.432 316.271C113 316 113 316 110.785 314.259C105.816 307.972 105.477 300.297 105.563 292.562C105.569 291.61 105.575 290.658 105.581 289.677C105.936 273.291 109.195 258.977 121.262 247.41C131.953 238 131.953 238 137 238Z" fill="#86A840"/>
<path d="M225.25 94.875C233.946 98.9997 241.094 105.752 246 114C246.25 116.875 246.25 116.875 246 119C245.385 119.061 244.77 119.121 244.137 119.184C243.328 119.267 242.52 119.351 241.688 119.438C240.887 119.519 240.086 119.6 239.262 119.684C236.839 119.953 236.839 119.953 234 121C233.01 119.515 233.01 119.515 232 118C229.69 118.66 227.38 119.32 225 120C225 119.34 225 118.68 225 118C223 117.957 221 117.959 219 118C218.505 118.495 218.505 118.495 218 119C216.634 119.349 215.256 119.654 213.875 119.938C210.986 120.55 208.214 121.23 205.375 122.063C202 123 202 123 198.25 123.438C194.722 124.048 194.251 124.456 192 127C191.01 127.474 190.02 127.949 189 128.438C185.969 129.742 185.969 129.742 184.5 132C182.473 134.703 180.001 135.531 177 137C174.829 139.914 174.829 139.914 174.062 143.438C173 147 173 147 171.312 149.125C169.721 150.979 169.721 150.979 170.188 153.625C170.857 156.15 170.857 156.15 173 158C172.34 160.31 171.68 162.62 171 165C169.824 164.691 169.824 164.691 168.625 164.375C163.816 163.878 159.667 164.884 155 166C155 168.64 155 171.28 155 174C153.824 174.309 153.824 174.309 152.625 174.625C149.069 176.488 149.175 178.254 148 182C145.375 184.875 145.375 184.875 143 187C143.557 188.145 143.557 188.145 144.125 189.313C144.558 190.643 144.558 190.643 145 192C144.34 192.99 143.68 193.98 143 195C143.157 197.619 143.157 197.619 144 200C144.66 200.33 145.32 200.66 146 201C145.807 209.066 145.807 209.066 142.625 212.75C141.759 213.493 140.892 214.235 140 215C138.947 216.634 137.927 218.292 137 220C132.263 218.885 130.075 216.28 127.426 212.426C122.678 204.348 121.639 196.598 121.562 187.375C121.552 186.505 121.542 185.634 121.532 184.738C121.711 171.356 126.934 161.834 136.375 152.563C137.377 151.636 137.377 151.636 138.398 150.691C141.337 147.588 141.14 144.331 141.23 140.231C141.07 137.854 141.07 137.854 140.016 135.152C138.923 131.76 138.633 128.932 138.562 125.375C138.523 124.269 138.483 123.163 138.441 122.023C139 119 139 119 141.074 116.645C144.647 114.636 147.167 114.498 151.25 114.313C158.776 113.705 164.091 111.212 170.556 107.457C176.245 104.215 181.792 102.377 188.113 100.754C192.354 99.6227 195.555 98.225 199.125 95.6875C206.918 90.5719 216.819 91.8203 225.25 94.875Z" fill="#85A840"/>
<path d="M320.375 95.75C321.29 95.7448 322.205 95.7397 323.148 95.7344C330.167 96.3881 336.327 99.9905 342.547 103.078C349.693 106.535 356.142 108.286 364.188 108.188C365.357 108.181 366.526 108.175 367.73 108.168C370.614 108.02 373.187 107.598 376 107C379.845 106.761 383.308 106.769 387 108C386.536 109.145 386.536 109.145 386.062 110.312C382.73 118.743 382.589 128.495 385.875 137C388.501 142.576 391.933 147.573 395.402 152.647C405.126 166.894 409.318 184.393 406.598 201.535C404.692 207.999 399.318 212.09 393.699 215.324C391.827 216.272 389.916 217.144 388 218C387.505 214.535 387.505 214.535 387 211C388.65 210.01 390.3 209.02 392 208C391.502 204.312 390.899 202.395 388 200C388.99 199.67 389.98 199.34 391 199C390.01 195.04 390.01 195.04 389 191C390.32 190.34 391.64 189.68 393 189C392.344 185.39 392.344 185.39 391 182C391 180.68 391 179.36 391 178C390.34 177.526 389.68 177.051 389 176.562C388.01 175.789 388.01 175.789 387 175C386.75 172.312 386.75 172.312 387 170C385.793 169.598 385.793 169.598 384.562 169.188C383.717 168.796 382.871 168.404 382 168C381.67 167.01 381.34 166.02 381 165C379.515 164.505 379.515 164.505 378 164C378 162.02 378 160.04 378 158C376.515 157.505 376.515 157.505 375 157C374.505 154.03 374.505 154.03 374 151C373.374 150.914 372.747 150.827 372.102 150.738C369.633 150.314 367.355 149.857 365 149C363.625 146.438 363.625 146.438 363 144C362.01 143.67 361.02 143.34 360 143C359.34 141.35 358.68 139.7 358 138C354.37 138 350.74 138 347 138C346.505 138.99 346.505 138.99 346 140C344.36 139.722 344.36 139.722 342.688 139.438C339.064 138.742 339.064 138.742 336 140C336.041 138.886 336.082 137.773 336.125 136.625C336.411 132.956 336.411 132.956 334 131C333.34 130.897 332.68 130.794 332 130.688C331.34 130.461 330.68 130.234 330 130C329.288 128.352 328.626 126.682 328 125C327.319 124.319 326.639 123.639 325.938 122.938C323.897 120.897 323.401 119.805 323 117C321.35 116.67 319.7 116.34 318 116C317.938 115.381 317.876 114.762 317.812 114.125C317.187 111.819 317.187 111.819 314.938 110.812C311.283 109.802 307.773 109.384 304 109C305.607 104.033 308.347 99.6836 312.828 96.8398C315.463 95.821 317.554 95.7342 320.375 95.75Z" fill="#86A940"/>
<path d="M369 301C372.045 303.03 372.573 303.713 374.125 306.812C375.985 310.339 378.063 313.55 380.414 316.771C387.477 326.492 390.119 334.918 389 347C386.528 361.964 386.528 361.964 380.312 367.312C372.579 371.252 364.375 368.031 356.438 366C340.425 362.178 329.354 361.616 314.094 368.273C303.888 372.712 296.625 372.914 286.32 369.168C284 368 284 368 282 365C284.31 363.68 286.62 362.36 289 361C289.33 361.33 289.66 361.66 290 362C293.331 362.501 293.331 362.501 297 362C298.689 360.356 300.353 358.686 302 357C304.34 356.007 306.666 355.274 309.109 354.578C310.992 354.164 310.992 354.164 312 353C314.313 352.471 316.637 352.037 318.969 351.598C319.974 351.302 319.974 351.302 321 351C321.495 350.01 321.495 350.01 322 349C324.322 348.593 326.657 348.256 329 348C329.278 346.886 329.278 346.886 329.562 345.75C331.604 341.844 334.132 341.04 338 339C338.495 338.01 338.495 338.01 339 337C339.763 336.752 340.526 336.505 341.312 336.25C345.045 334.514 346.17 332.661 348 329C348.527 325.127 348.243 321.729 347 318C347.639 317.711 348.279 317.423 348.938 317.125C351.152 316.172 351.152 316.172 352 314C355.613 312.555 358.067 312 362 312C362.33 311.01 362.66 310.02 363 309C364.98 309 366.96 309 369 309C369 306.36 369 303.72 369 301Z" fill="#86A841"/>
<path d="M364 235C366.875 234.875 366.875 234.875 370 235C372 237 372 237 372.188 240C372 243 372 243 371 245C371.804 244.979 372.609 244.959 373.438 244.938C376 245 376 245 377 246C377.043 248 377.041 250 377 252C377 252.66 377 253.32 377 254C378.96 255.637 378.96 255.637 381 257C380.835 257.763 380.67 258.526 380.5 259.312C379.909 262.036 379.909 262.036 380 265C380.33 265.33 380.66 265.66 381 266C380.4 272.6 380.4 272.6 378 275C375.375 275.125 375.375 275.125 373 275C372.67 277.31 372.34 279.62 372 282C370.969 282.144 369.938 282.289 368.875 282.438C365.575 282.917 362.287 283.439 359 284C356.762 290.057 355.578 294.703 356.969 301.09C357 303 357 303 355.73 304.742C353.195 306.585 351.044 306.203 348 306C347.876 306.619 347.752 307.238 347.625 307.875C347 310 347 310 345 312C342.333 312 339.667 312 337 312C336.34 312.66 335.68 313.32 335 314C332.941 314.238 332.941 314.238 330.562 314.312C328.16 314.455 328.16 314.455 326 315C324.009 317.425 324.009 317.425 323 320C322.34 320 321.68 320 321 320C320.856 320.763 320.711 321.526 320.562 322.312C320 325 320 325 319 328C319.99 329.485 319.99 329.485 321 331C320.625 333.688 320.625 333.688 320 336C318.68 336.33 317.36 336.66 316 337C316.021 338.134 316.041 339.269 316.062 340.438C316 344 316 344 315 345C309.471 345.235 309.471 345.235 307 344C307 343.34 307 342.68 307 342C306.443 342.516 305.886 343.031 305.312 343.562C303 345 303 345 300.25 344.688C299.507 344.461 298.765 344.234 298 344C297.67 343.01 297.34 342.02 297 341C296.34 341 295.68 341 295 341C294.505 342.485 294.505 342.485 294 344C292.02 344 290.04 344 288 344C287.917 344.908 287.835 345.815 287.75 346.75C286.891 350.474 286.077 351.778 283 354C280.438 354.5 280.438 354.5 278 354C276.959 352.699 275.961 351.362 275 350C274.134 349.67 273.267 349.34 272.375 349C271.199 348.505 271.199 348.505 270 348C269.188 345.875 269.188 345.875 269 344C266.668 343.665 266.668 343.665 264 344C263.041 344.99 263.041 344.99 262.062 346C259.303 348.676 257.727 348 254 348C253.34 348.66 252.68 349.32 252 350C250 352 250 352 246.875 352.375C244 352 244 352 242 350C241.257 350.351 240.515 350.701 239.75 351.062C236.838 352.055 235.789 352.154 233 351C232.34 350.34 231.68 349.68 231 349C228.312 348.73 225.709 348.913 223 349C222.67 350.65 222.34 352.3 222 354C220.35 352.35 218.7 350.7 217 349C218.485 348.01 218.485 348.01 220 347C219.67 345.969 219.34 344.938 219 343.875C218.028 340.516 217.829 337.509 218 334C219.5 335.375 219.5 335.375 221 337C221 337.66 221 338.32 221 339C222.196 338.814 223.393 338.629 224.625 338.438C228.309 337.963 231.337 338.349 235 339C236.673 338.703 238.343 338.379 240 338C240.495 338.495 240.495 338.495 241 339C243.534 339.128 246.028 339.19 248.562 339.188C249.292 339.187 250.021 339.187 250.772 339.187C255.831 339.134 260.168 338.58 265 337C266.331 336.658 267.664 336.322 269 336C269 336.66 269 337.32 269 338C271.526 335.637 272.888 334.335 274 331C274.639 330.752 275.279 330.505 275.938 330.25C278.416 329.049 278.416 329.049 279.25 325.375C279.498 324.261 279.745 323.148 280 322C281.98 322.33 283.96 322.66 286 323C286.99 321.515 286.99 321.515 288 320C288.227 320.804 288.454 321.609 288.688 322.438C289.742 325.21 289.742 325.21 292.375 325.875C294.947 325.997 296.56 325.739 299 325C300.031 324.897 301.062 324.794 302.125 324.688C305.129 324.314 305.129 324.314 306.375 321.938C306.581 321.298 306.787 320.659 307 320C307.949 320.041 308.897 320.082 309.875 320.125C313.102 320.35 313.102 320.35 315 318C315.103 317.402 315.206 316.804 315.312 316.188C316.332 312.945 318.545 311.271 321 309C322.233 307.992 322.233 307.992 322.098 305.934C322.086 305.11 322.074 304.286 322.062 303.438C322.053 302.611 322.044 301.785 322.035 300.934C322.024 300.296 322.012 299.657 322 299C322.495 299.495 322.99 299.99 323.5 300.5C327.002 302.601 330.009 302.729 334 302C336.563 300.52 336.563 300.52 338 298C338.217 296.484 338.217 296.484 338.438 294.938C339 292 339 292 341.562 290.125C342.367 289.754 343.171 289.382 344 289C343.67 287.35 343.34 285.7 343 284C343.66 284 344.32 284 345 284C345 283.34 345 282.68 345 282C345.639 281.876 346.279 281.752 346.938 281.625C347.618 281.419 348.299 281.213 349 281C349.33 280.34 349.66 279.68 350 279C351.134 278.876 352.269 278.752 353.438 278.625C354.613 278.419 355.789 278.213 357 278C358.242 276.1 358.242 276.1 359 274C360.333 273.333 361.667 272.667 363 272C365.551 268.556 365.148 265.151 365 261C365 259.68 365 258.36 365 257C364.773 256.154 364.546 255.309 364.312 254.438C364.209 253.633 364.106 252.829 364 252C364.495 251.526 364.99 251.051 365.5 250.562C366.243 249.789 366.243 249.789 367 249C366.925 245.88 366.925 245.88 366 243C365.01 242.505 365.01 242.505 364 242C364 239.69 364 237.38 364 235Z" fill="#E0C582"/>
<path d="M366 131C370.02 132.306 373.955 133.74 377.875 135.316C380.118 136.123 380.118 136.123 383.066 136.281C386 137 386 137 387.652 139.152C388.076 140.071 388.501 140.991 388.938 141.938C390.912 145.944 392.976 149.527 395.625 153.125C405.434 166.922 409.249 184.83 406.598 201.535C404.692 207.999 399.318 212.09 393.699 215.324C391.827 216.272 389.916 217.144 388 218C387.67 215.69 387.34 213.38 387 211C388.65 210.01 390.3 209.02 392 208C391.502 204.312 390.899 202.395 388 200C389.485 199.505 389.485 199.505 391 199C390.34 196.36 389.68 193.72 389 191C390.32 190.34 391.64 189.68 393 189C392.344 185.39 392.344 185.39 391 182C391 180.68 391 179.36 391 178C390.34 177.526 389.68 177.051 389 176.562C388.34 176.047 387.68 175.531 387 175C386.75 172.312 386.75 172.312 387 170C386.196 169.732 385.391 169.464 384.562 169.188C383.294 168.6 383.294 168.6 382 168C381.67 167.01 381.34 166.02 381 165C379.515 164.505 379.515 164.505 378 164C378 162.02 378 160.04 378 158C377.01 157.67 376.02 157.34 375 157C374.67 155.02 374.34 153.04 374 151C373.374 150.914 372.747 150.827 372.102 150.738C369.636 150.314 367.356 149.846 365 149C363.5 146.562 363.5 146.562 363 144C362.67 143.01 362.34 142.02 362 141C362.777 138.52 362.777 138.52 363.938 135.812C364.318 134.911 364.698 134.01 365.09 133.082C365.39 132.395 365.691 131.708 366 131Z" fill="#74972B"/>
<path d="M337 151C337 151.99 337 152.98 337 154C339.97 154.495 339.97 154.495 343 155C343.853 158.674 344.108 162.045 344.062 165.812C344.053 166.788 344.044 167.764 344.035 168.77C344.024 169.506 344.012 170.242 344 171C345.134 171.474 346.269 171.949 347.438 172.438C351 174 351 174 352 175C352.449 178.954 352.309 180.556 350 183.875C349.34 184.576 348.68 185.277 348 186C348.66 186.66 349.32 187.32 350 188C350.209 190.783 350.256 192.487 349 195C349.66 195.33 350.32 195.66 351 196C350.67 197.98 350.34 199.96 350 202C350.928 202.268 351.856 202.536 352.812 202.812C357.33 204.496 357.33 204.496 359 207C359.312 209.562 359.312 209.562 359 212C357 214 357 214 354.574 214.082C344.104 213.104 344.104 213.104 340 209C339.959 207.334 339.957 205.666 340 204C339.423 203.794 338.845 203.588 338.25 203.375C335.023 201.403 333.71 199.357 332 196C332.25 192.125 332.25 192.125 333 189C331.855 188.845 331.855 188.845 330.688 188.688C327.718 187.928 326.578 187.63 325 185C325.26 182.657 325.6 180.323 326 178C325.794 177.113 325.588 176.226 325.375 175.312C325.251 174.549 325.127 173.786 325 173C326 171.667 327 170.333 328 169C328.912 166.046 329.626 163.071 330 160C329.67 159.67 329.34 159.34 329 159C328.688 156.625 328.688 156.625 329 154C331.819 151.081 332.8 151 337 151Z" fill="#FDE8B1"/>
<path d="M260 350C260.99 350 261.98 350 263 350C262.707 351.986 262.414 353.971 262.121 355.957C261.861 358.203 261.861 358.203 263 361C264.98 361 266.96 361 269 361C270.058 364.79 270.198 366.552 268.585 370.204C267.89 371.348 267.177 372.482 266.449 373.605C266.075 374.211 265.701 374.817 265.316 375.441C264.122 377.367 262.905 379.277 261.688 381.188C260.879 382.483 260.073 383.779 259.268 385.076C256.564 389.419 253.838 393.743 251 398C248.75 398.062 248.75 398.062 246 397C244.219 394.196 243.163 391.101 242 388C237.753 377.151 232.946 366.669 225 358C225.99 357.34 226.98 356.68 228 356C228.99 356.33 229.98 356.66 231 357C232.728 357.068 234.458 357.085 236.188 357.062C237.089 357.053 237.99 357.044 238.918 357.035C239.949 357.018 239.949 357.018 241 357C241.33 357.66 241.66 358.32 242 359C244.437 358.73 244.437 358.73 247 358C247.66 357.01 248.32 356.02 249 355C251.291 354.316 253.546 353.993 255.906 353.625C258.374 353.131 258.374 353.131 260 350Z" fill="#85A840"/>
<path d="M340 239C340 240.65 340 242.3 340 244C340.784 243.959 341.567 243.917 342.375 243.875C345 244 345 244 347 246C346.625 249 346.625 249 346 252C346 252.66 346 253.32 346 254C346.495 254.495 346.495 254.495 347 255C347.466 260.364 347.466 260.364 345.625 262.875C344 264 344 264 342 264C342.062 265.279 342.124 266.557 342.188 267.875C342.293 270.055 342.293 270.055 342 272C338.838 274.108 337.493 274.338 333.812 274.625C332.911 274.7 332.01 274.775 331.082 274.852C330.395 274.901 329.708 274.95 329 275C328.67 276.65 328.34 278.3 328 280C324.544 280.417 323.13 280.079 320.105 278.242C319.143 277.461 318.18 276.68 317.188 275.875C315.724 274.726 315.724 274.726 314.23 273.555C312 271 312 271 311.488 267.883C312.059 264.67 312.64 264.081 315 262C315.816 259.903 315.816 259.903 316.375 257.625C317.702 253.261 319.677 251.148 323 248C323.165 247.154 323.33 246.309 323.5 245.437C324 243 324 243 325.875 240.687C330.497 238.192 334.854 238.676 340 239Z" fill="#FDE8B1"/>
<path d="M285 173C285.66 174.32 286.32 175.64 287 177C288.32 177 289.64 177 291 177C291.111 182.455 290.9 187.6 290 193C289.897 194.217 289.794 195.434 289.688 196.688C288.91 200.434 288.055 201.754 285 204C284.01 204 283.02 204 282 204C282 206.31 282 208.62 282 211C280.515 211.495 280.515 211.495 279 212C279.66 212.99 280.32 213.98 281 215C281.375 218.5 281.375 218.5 281 222C279.25 224 279.25 224 277 225C273.996 224.735 273.167 224.167 271 222C271 220.68 271 219.36 271 218C270.216 217.876 269.433 217.753 268.625 217.625C266 217 266 217 264 215C263.736 211.508 263.661 208.828 265 205.563C266.017 202.956 266.052 201.611 265.938 198.875C265.958 197.596 265.979 196.318 266 195C266.516 194.505 267.031 194.01 267.563 193.5C269.229 192.112 269.229 192.112 268.977 190.051C268.715 188.025 268.363 186.011 268 184C268.99 183.67 269.98 183.34 271 183C271.062 182.258 271.124 181.515 271.188 180.75C272.256 177.132 273.908 176.062 277 174C279.928 173.024 281.956 172.918 285 173Z" fill="#FEF0D1"/>
<path d="M209 110C209.082 114.18 208.894 117.922 208 122C207.096 122.11 206.193 122.219 205.262 122.332C204.082 122.491 202.903 122.649 201.688 122.813C200.516 122.963 199.344 123.114 198.137 123.27C194.894 124.025 194.06 124.541 192 127C191.01 127.474 190.02 127.949 189 128.438C185.969 129.742 185.969 129.742 184.5 132C182.473 134.703 180.001 135.531 177 137C174.829 139.914 174.829 139.914 174.062 143.438C173 147 173 147 171.312 149.125C169.721 150.979 169.721 150.979 170.188 153.625C170.857 156.15 170.857 156.15 173 158C171.279 159.721 169.028 159.172 166.688 159.188C165.722 159.202 164.756 159.216 163.762 159.231C161 159 161 159 157 157C160.96 153.04 164.92 149.08 169 145C167.68 143.35 166.36 141.7 165 140C163.667 136.133 163.462 132.512 164.84 128.641C165.81 126.693 166.834 124.837 168 123C168.66 123 169.32 123 170 123C170.257 122.393 170.513 121.786 170.777 121.16C173.879 115.681 181.03 113.296 186.793 111.559C194.145 109.698 201.466 109.887 209 110Z" fill="#739729"/>
<path d="M357 153C359.475 153.495 359.475 153.495 362 154C362.33 155.65 362.66 157.3 363 159C364.98 159 366.96 159 369 159C369 160.32 369 161.64 369 163C369.887 163.206 370.774 163.412 371.688 163.625C375.861 165.357 377.539 167.236 380 171C380.188 174.25 380.188 174.25 380 177C380.66 177.66 381.32 178.32 382 179C382.383 182.733 382.149 183.776 380 187C380.825 187.371 381.65 187.743 382.5 188.125C383.325 188.744 384.15 189.363 385 190C385 192 385 194 385 196C387.375 198.876 387.375 198.876 390 201C387.25 206.875 387.25 206.875 385 208C384.319 209.661 383.653 211.328 383 213C382.34 213.66 381.68 214.32 381 215C379.68 215 378.36 215 377 215C376.01 217.475 376.01 217.475 375 220C371.625 220.125 371.625 220.125 368 220C367.34 219.34 366.68 218.68 366 218C367.32 217.34 368.64 216.68 370 216C369.876 214.608 369.876 214.608 369.75 213.188C369.833 212.136 369.915 211.084 370 210C371.333 209 372.667 208 374 207C374.5 203.958 374.5 203.958 374 201C373.34 200.34 372.68 199.68 372 199C372.062 198.216 372.124 197.433 372.188 196.625C372.282 193.732 372.282 193.732 369.5 191.688C368.675 191.131 367.85 190.574 367 190C367.99 189.34 368.98 188.68 370 188C369.67 186.35 369.34 184.7 369 183C370.65 181.68 372.3 180.36 374 179C373.421 177.001 373.421 177.001 372 175C368.958 173.708 368.958 173.708 366 173C366 172.34 366 171.68 366 171C364.02 170.34 362.04 169.68 360 169C360.33 167.35 360.66 165.7 361 164C359.68 163.01 358.36 162.02 357 161C357.33 160.67 357.66 160.34 358 160C358.191 156.368 358.191 156.368 357 153Z" fill="#E0C582"/>
<path d="M276 246C279.062 248.438 279.062 248.438 281 251C281.33 251.33 281.66 251.66 282 252C282.25 254.938 282.25 254.938 282 258C281.01 258.66 280.02 259.32 279 260C278.691 260.846 278.381 261.691 278.062 262.563C277 265 277 265 275 265.875C273 266 273 266 271 265C271.041 265.949 271.082 266.898 271.125 267.875C271 271 271 271 269 273C266.384 272.673 264.359 272.18 262 271C262 272.98 262 274.96 262 277C262.66 277 263.32 277 264 277C263.505 279.475 263.505 279.475 263 282C260.625 281.688 260.625 281.688 258 281C257.34 280.01 256.68 279.02 256 278C255.134 277.588 254.267 277.175 253.375 276.75C252.199 275.884 252.199 275.884 251 275C250.567 271.034 251.016 267.812 252 264C251.917 263.051 251.835 262.103 251.75 261.125C252.108 256.65 253.857 255.143 257 252C257.66 252 258.32 252 259 252C259.227 251.381 259.454 250.763 259.687 250.125C262.966 244.818 270.407 245.063 276 246Z" fill="#FEF0D1"/>
<path d="M215 267C216.32 267 217.64 267 219 267C219 267.66 219 268.32 219 269C219.957 268.874 219.957 268.874 220.934 268.746C221.76 268.644 222.586 268.542 223.438 268.438C224.261 268.333 225.085 268.229 225.934 268.121C226.956 268.061 226.956 268.061 228 268C229 269 229 269 229.062 271.562C229.042 272.367 229.021 273.171 229 274C230.052 273.959 231.104 273.918 232.188 273.875C235.74 273.991 237.849 274.472 241 276C242.125 282.75 242.125 282.75 241 285C240.031 284.979 239.061 284.959 238.062 284.938C235.125 284.644 235.125 284.644 234 286C230.527 286.309 228.613 286.387 225.625 284.5C225.089 284.005 224.553 283.51 224 283C223.01 283.66 222.02 284.32 221 285C217.812 285.125 217.812 285.125 215 285C214.34 283.68 213.68 282.36 213 281C212.01 281.495 212.01 281.495 211 282C208.276 281.911 205.59 281.766 202.875 281.562C202.121 281.51 201.367 281.458 200.59 281.404C198.726 281.275 196.863 281.138 195 281C196.362 278.158 197.552 276.04 200 274C200.66 274 201.32 274 202 274C202 272.68 202 271.36 202 270C205.638 267.672 208.76 267.764 213 268C213.66 268.33 214.32 268.66 215 269C215 268.34 215 267.68 215 267Z" fill="#FEF0D1"/>
<path d="M294.312 111.75C297.205 112.019 299.369 112.797 302 114C302 115.32 302 116.64 302 118C305.465 117.505 305.465 117.505 309 117C309.33 118.32 309.66 119.64 310 121C312.31 121.33 314.62 121.66 317 122C317.562 123.938 317.562 123.938 318 126C317.67 126.33 317.34 126.66 317 127C317.99 127.557 318.98 128.114 320 128.688C323 131 323 131 323.375 133.625C323.189 134.801 323.189 134.801 323 136C323 136.66 323 137.32 323 138C323.66 138.33 324.32 138.66 325 139C324.979 139.804 324.959 140.609 324.938 141.438C324.704 143.934 324.704 143.934 326 145C326.041 146.666 326.043 148.334 326 150C320.25 152 320.25 152 318 152C317.752 151.072 317.505 150.144 317.25 149.188C316.315 145.936 316.315 145.936 313.938 144.562C312 143 312 143 311.25 139.312C311.167 138.219 311.085 137.126 311 136C308.36 135.34 305.72 134.68 303 134C303 132.02 303 130.04 303 128C302.34 127.67 301.68 127.34 301 127C300.711 126.196 300.423 125.391 300.125 124.562C299.229 121.864 299.229 121.864 296.875 120.688C296.256 120.461 295.637 120.234 295 120C295 118.35 295 116.7 295 115C293.35 114.67 291.7 114.34 290 114C292 112 292 112 294.312 111.75Z" fill="#E0C582"/>
<path d="M137 245C138.98 245.66 140.96 246.32 143 247C143.163 249.018 143.326 251.036 143.488 253.055C143.874 255.395 143.874 255.395 147 257C148.805 262.509 149.206 267.23 149 273C146.392 273.989 145.305 274.121 142.668 273.074C141.849 272.617 141.031 272.159 140.188 271.688C136.136 269.527 132.456 268.065 128 267C127.351 259.378 129.891 253.308 134.75 247.438C135.493 246.633 136.235 245.829 137 245Z" fill="#74982A"/>
<path d="M172.312 122.688C177.865 125.399 180.549 128.325 183 134C182.051 134.433 181.103 134.866 180.125 135.313C176.8 136.793 176.8 136.793 175 140C174.691 141.134 174.381 142.269 174.062 143.438C173 147 173 147 171.312 149.125C169.721 150.979 169.721 150.979 170.188 153.625C170.857 156.15 170.857 156.15 173 158C171.279 159.721 169.028 159.172 166.688 159.188C165.722 159.202 164.756 159.216 163.762 159.231C161 159 161 159 157 157C160.96 153.04 164.92 149.08 169 145C167.68 143.35 166.36 141.7 165 140C163.34 135.185 163.622 131.07 165.812 126.5C168.526 121.562 168.526 121.562 172.312 122.688Z" fill="#89AB3A"/>
<path d="M344 115C349.684 114.526 354.41 115.373 359 119C360.02 120.769 360.02 120.769 360 123C358.509 125.172 357.066 127 355.312 128.937C354.412 129.967 353.513 130.997 352.613 132.027C351.751 133.008 350.889 133.989 350 135C349.272 135.95 348.543 136.9 347.793 137.879C347.201 138.579 346.61 139.279 346 140C345.34 140 344.68 140 344 140C343.073 137.22 342.871 135.528 342.867 132.656C342.866 131.822 342.865 130.988 342.863 130.129C342.867 129.261 342.871 128.394 342.875 127.5C342.871 126.632 342.867 125.765 342.863 124.871C342.865 124.037 342.866 123.203 342.867 122.344C342.868 121.582 342.869 120.821 342.871 120.037C343 118 343 118 344 115Z" fill="#729628"/>
<path d="M349 322C349.33 322 349.66 322 350 322C350 324.31 350 326.62 350 329C350.652 328.956 351.305 328.912 351.977 328.867C354.903 328.876 357.208 329.1 360 330C362.851 332.924 364.357 336.293 366 340C366.474 341.018 366.949 342.037 367.438 343.086C369.787 348.385 371.605 353.202 372 359C371.34 359 370.68 359 370 359C368.703 357.277 368.703 357.277 367.25 354.938C361.109 345.543 354.312 340.093 345 334C345.481 333.254 345.962 332.507 346.457 331.738C348.293 328.48 348.638 325.694 349 322Z" fill="#A6C75A"/>
<path d="M369 301C372.068 303.045 372.616 303.799 374.188 306.938C376.778 311.872 380.037 316.086 383.523 320.422C385 323 385 323 384 328C380.7 328.66 377.4 329.32 374 330C373.769 329.276 373.539 328.551 373.301 327.805C370.232 318.369 370.232 318.369 363 312C363 311.34 363 310.68 363 310C364.98 309.67 366.96 309.34 369 309C369 306.36 369 303.72 369 301Z" fill="#75982C"/>
<path d="M132.954 281.201C135.503 282.196 136.265 283.294 137.75 285.562C138.178 286.203 138.606 286.844 139.047 287.504C139.361 287.998 139.676 288.491 140 289C139.477 289.291 138.954 289.583 138.415 289.883C124.985 297.353 124.985 297.353 112.715 306.539C111 308 111 308 109 309C111.922 298.936 119.285 290.872 127 284C127.655 283.412 128.31 282.824 128.984 282.219C131 281 131 281 132.954 281.201Z" fill="#A5C759"/>
<path d="M347 318C355.841 317.436 362.421 320.108 369.371 325.5C371 327 371 327 373 330C369.729 330.029 366.458 330.047 363.188 330.062C362.259 330.071 361.33 330.079 360.373 330.088C359.48 330.091 358.588 330.094 357.668 330.098C356.846 330.103 356.024 330.108 355.177 330.113C353 330 353 330 350 329C349.876 327.927 349.752 326.855 349.625 325.75C349.104 322.621 348.599 320.665 347 318Z" fill="#729628"/>
<path d="M214 110C224.684 110.378 234.643 112.501 245 115C245.33 116.32 245.66 117.64 246 119C245.385 119.061 244.77 119.121 244.137 119.184C242.924 119.309 242.924 119.309 241.688 119.438C240.887 119.519 240.086 119.6 239.262 119.684C236.839 119.953 236.839 119.953 234 121C233.34 120.01 232.68 119.02 232 118C229.69 118.66 227.38 119.32 225 120C225 119.34 225 118.68 225 118C220.859 117.79 220.859 117.79 217 119C216.01 116.03 215.02 113.06 214 110Z" fill="#75982B"/>
<path d="M231.844 355.984C235.115 356.922 235.882 357.792 237.586 360.795C238.807 363.914 239.897 367.012 240.876 370.211C241.497 372.24 242.161 374.25 242.836 376.262C244.687 381.932 246.28 386.962 246 393C245.34 393 244.68 393 244 393C243.636 392.045 243.273 391.09 242.898 390.105C238.333 378.287 233.18 367.801 225 358C228 356 228 356 231.844 355.984Z" fill="#A5C659"/>
<path d="M164 131C167.563 132.424 168.928 133.966 170.75 137.312C171.178 138.072 171.606 138.831 172.047 139.613C173.116 142.292 173.292 144.141 173 147C172.484 147.66 171.969 148.32 171.438 149C169.715 150.947 169.715 150.947 170.188 153.625C170.857 156.15 170.857 156.15 173 158C171.279 159.721 169.028 159.172 166.688 159.188C165.722 159.202 164.756 159.216 163.762 159.23C161 159 161 159 157 157C160.96 153.04 164.92 149.08 169 145C167.68 143.35 166.36 141.7 165 140C164.391 137.543 164.391 137.543 164.25 135.188C164.193 134.397 164.137 133.607 164.078 132.793C164.039 131.905 164.039 131.905 164 131Z" fill="#74972A"/>
<path d="M141 154C141.521 154.203 142.043 154.406 142.58 154.615C148.73 156.853 154.559 157.694 161.062 158.188C162.023 158.269 162.984 158.351 163.975 158.436C166.316 158.634 168.657 158.822 171 159C171 160.98 171 162.96 171 165C170.175 164.794 169.35 164.588 168.5 164.375C164.785 163.977 162.512 164.485 159.027 165.625C156.36 166.118 154.592 165.794 152 165C149.867 163.512 149.867 163.512 147.875 161.688C147.212 161.093 146.55 160.499 145.867 159.887C144.034 158.035 142.508 156.121 141 154Z" fill="#8EAD3F"/>
<path d="M339 337C339.99 337 340.98 337 342 337C341.475 344.75 339.444 351.645 337 359C331.25 354.375 331.25 354.375 329 351C329.312 349.062 329.312 349.062 330 347C330.041 346.34 330.082 345.68 330.125 345C331.594 341.642 334.837 340.695 338 339C338.33 338.34 338.66 337.68 339 337Z" fill="#A6C85B"/>
<path d="M150 165C151.675 165.286 153.344 165.618 155 166C155 168.64 155 171.28 155 174C154.216 174.206 153.433 174.412 152.625 174.625C149.078 176.483 149.191 178.28 148 182C143.895 186 143.895 186 140 186C141.276 178.626 144.621 170.379 150 165Z" fill="#76982C"/>
<path d="M260 350C260.99 350 261.98 350 263 350C262.707 352.018 262.414 354.036 262.121 356.055C261.832 358.081 261.832 358.081 263 360C262.34 360 261.68 360 261 360C261.021 361.258 261.041 362.516 261.062 363.812C261.109 366.641 260.917 368.249 260 371C259.01 370.67 258.02 370.34 257 370C255.719 367.129 255.719 367.129 254.5 363.562C252.911 358.423 252.911 358.423 249 355C249.626 354.89 250.253 354.781 250.898 354.668C252.124 354.43 252.124 354.43 253.375 354.188C254.187 354.037 254.999 353.886 255.836 353.73C258.358 353.125 258.358 353.125 260 350Z" fill="#A8C85C"/>
<path d="M339 114C337.938 116.778 336.791 119.41 335.437 122.062C334.271 124.447 333.497 126.417 333 129C332.01 129 331.02 129 330 129C329.752 128.423 329.505 127.845 329.25 127.25C328.077 124.858 328.077 124.858 325.812 123C324 121 324 121 324.086 118.984C325 117 325 117 327.144 115.953C328.025 115.721 328.905 115.489 329.812 115.25C331.121 114.886 331.121 114.886 332.457 114.516C335 114 335 114 339 114Z" fill="#74972A"/>
<path d="M190 334C192.64 335.65 195.28 337.3 198 339C197.09 342.639 195.815 345.067 193.922 348.25C192.765 350.447 192.298 352.545 192 355C187.581 349.812 187.688 344.543 188 338C188.66 336.68 189.32 335.36 190 334Z" fill="#A4C658"/>
<path d="M379 115C378.113 115.495 377.226 115.99 376.312 116.5C371.514 119.673 368.789 124.633 367 130C364.507 129.003 363.225 128.349 361.75 126.063C361 124 361 124 361 121C363.047 119.43 363.047 119.43 365.75 117.875C366.632 117.357 367.513 116.839 368.422 116.305C372.351 114.316 374.77 113.641 379 115Z" fill="#A3C558"/>
<path d="M150 116C152.605 116.644 155.209 117.29 157.812 117.938C158.55 118.12 159.288 118.302 160.049 118.49C163.071 119.242 166.045 120.015 169 121C167.744 124.477 166.267 127.094 164 130C159.333 125.333 154.667 120.667 150 116Z" fill="#A4C658"/>
<path d="M176 213C185.173 213.35 185.173 213.35 188.625 216.062C189.079 216.702 189.532 217.341 190 218C188.02 220.97 188.02 220.97 186 224C183.36 223.34 180.72 222.68 178 222C178.33 220.35 178.66 218.7 179 217C177.68 216.67 176.36 216.34 175 216C175.33 215.01 175.66 214.02 176 213Z" fill="#FDE9B3"/>
<path d="M139 191C140.98 191 142.96 191 145 191C144.649 191.557 144.299 192.114 143.938 192.688C142.768 195.572 143.051 197.073 144 200C144.66 200.33 145.32 200.66 146 201C145.886 202.48 145.759 203.959 145.625 205.438C145.555 206.261 145.486 207.085 145.414 207.934C145.277 208.616 145.141 209.297 145 210C144.34 210.33 143.68 210.66 143 211C139.303 204.089 138.849 198.687 139 191Z" fill="#789A2F"/>
<path d="M203 342C205.31 342.66 207.62 343.32 210 344C208.125 348.75 208.125 348.75 207 351C206.772 352.871 206.59 354.747 206.438 356.625C206.312 358.129 206.312 358.129 206.184 359.664C206.123 360.435 206.062 361.206 206 362C202.99 358.99 203.022 356.771 202.902 352.547C202.914 351.294 202.926 350.041 202.938 348.75C202.947 347.487 202.956 346.223 202.965 344.922C202.976 343.958 202.988 342.993 203 342Z" fill="#A3C558"/>
<path d="M151.562 296.187C154 297 154 297 156 299C152.265 302.283 148.71 304.373 144 306C141.562 305.687 141.562 305.687 140 305C140.619 304.752 141.238 304.505 141.875 304.25C144.407 302.76 144.807 301.624 146 299C147.856 296.437 148.339 295.952 151.562 296.187Z" fill="#A4C659"/>
<path d="M151 285C152.25 291.625 152.25 291.625 150 295C146.561 293.758 143.748 292.443 141 290C141 289.34 141 288.68 141 288C147.625 285 147.625 285 151 285Z" fill="#739729"/>
<path d="M347 318C351.254 319.364 353.43 321.181 356.312 324.562C357.01 325.368 357.707 326.174 358.426 327.004C360 329 360 329 360 330C353.375 330.125 353.375 330.125 350 329C349.876 327.928 349.752 326.855 349.625 325.75C349.104 322.621 348.599 320.665 347 318Z" fill="#88AA39"/>
<path d="M141 154C141.58 154.205 142.16 154.41 142.758 154.621C147.162 156.14 151.357 157.405 156 158C154.02 160.97 154.02 160.97 152 164C148.813 162.597 146.678 160.922 144.25 158.438C143.636 157.817 143.023 157.197 142.391 156.559C141 155 141 155 141 154Z" fill="#A4C659"/>
<path d="M116 267C120.29 267 124.58 267 129 267C129.33 269.31 129.66 271.62 130 274C125.38 272.35 120.76 270.7 116 269C116 268.34 116 267.68 116 267Z" fill="#A3C558"/>
<path d="M189 115C191.098 117.098 191.651 118.38 192.625 121.125C192.885 121.849 193.146 122.574 193.414 123.32C193.704 124.152 193.704 124.152 194 125C191.325 126.663 189 128 186 129C186.199 128.112 186.199 128.112 186.402 127.207C187.31 123.146 188.209 119.086 189 115Z" fill="#87A939"/>
<path d="M131 182C135.455 183.98 135.455 183.98 140 186C140 187.32 140 188.64 140 190C136.233 189.477 133.726 188.726 131 186C131 184.68 131 183.36 131 182Z" fill="#A3C558"/>
<path d="M381 153C381.688 154.75 381.688 154.75 382 157C380.562 159.25 380.562 159.25 379 161C378.67 160.01 378.34 159.02 378 158C377.01 157.67 376.02 157.34 375 157C375 156.01 375 155.02 375 154C376.98 153.67 378.96 153.34 381 153Z" fill="#89AA3A"/>
<path d="M203 333C203.66 333 204.32 333 205 333C204.477 335.763 203.891 338.326 203 341C201.68 340.67 200.36 340.34 199 340C200.32 337.69 201.64 335.38 203 333Z" fill="#75982B"/>
<path d="M185 328C186.65 328 188.3 328 190 328C190.33 329.65 190.66 331.3 191 333C187.839 331.63 187.007 331.011 185 328Z" fill="#76982B"/>
<path d="M345 108C346.245 110.491 345.777 111.411 345 114C343.35 114 341.7 114 340 114C341.65 112.02 343.3 110.04 345 108Z" fill="#A3C659"/>
</svg>
