<svg width="500" height="500" viewBox="0 0 500 500" fill="none" xmlns="http://www.w3.org/2000/svg">
<path d="M274 117C274.639 117.458 275.279 117.915 275.938 118.387C295.278 133.295 301.851 159.354 306.082 182.137C306.799 185.978 307.557 189.811 308.316 193.645C308.463 194.385 308.61 195.125 308.761 195.888C313.929 221.782 324.699 243.541 340 265C356.597 288.341 368.032 306.257 365 336C361.424 356.834 350.568 375.672 333.211 387.965C324.679 393.373 315.823 397.522 306 400C304.804 400.351 303.607 400.701 302.375 401.063C301.261 401.372 300.148 401.681 299 402C297.902 402.344 296.803 402.688 295.672 403.043C289.496 404.572 283.197 404.289 276.875 404.25C275.03 404.262 275.03 404.262 273.148 404.273C261.404 404.249 249.974 402.857 238.625 399.813C237.827 399.599 237.029 399.385 236.206 399.165C218.545 394.221 202.248 385.705 189 373C187.484 371.824 187.484 371.824 185.937 370.625C181.381 366.553 177.735 361.821 174 357C173.412 356.251 172.824 355.502 172.219 354.73C157.439 334.826 148.988 311.025 144 287C143.787 285.987 143.574 284.975 143.354 283.931C134.08 237.607 136.474 178.15 162.207 137.073C165.972 131.521 170.218 126.688 175 122C175.742 121.216 176.485 120.433 177.25 119.625C184.283 112.912 191.634 107.674 200.812 104.375C201.974 103.95 203.135 103.524 204.332 103.086C227.693 96.1696 254.969 102.399 274 117Z" fill="#D6A23D"/>
<path d="M201.676 129.168C204 130 204 130 206 132C206.687 134.687 206.687 134.687 206 138C203.964 139.88 201.771 141.413 199.516 143.023C189.495 150.897 184.291 162.571 180.211 174.277C179 177 179 177 176 179C172.678 178.676 171.392 178.392 169 176C167.707 164.399 178.157 150.526 184.812 141.75C195.611 128.787 195.611 128.787 201.676 129.168Z" fill="#EDB95D"/>
<path d="M240.465 139.734C241.347 139.732 242.23 139.729 243.139 139.727C244.062 139.734 244.986 139.742 245.938 139.75C246.857 139.742 247.777 139.735 248.725 139.727C250.05 139.73 250.05 139.73 251.402 139.734C252.212 139.737 253.021 139.739 253.855 139.741C256 140 256 140 259 142C259.375 145 259.375 145 259 148C254.616 150.923 250.593 150.33 245.438 150.312C244.466 150.329 243.495 150.345 242.494 150.361C241.567 150.362 240.639 150.363 239.684 150.363C238.833 150.366 237.983 150.369 237.107 150.372C236.412 150.249 235.716 150.127 235 150C233 147 233 147 233.25 144.438C234.571 140.144 236.295 139.746 240.465 139.734Z" fill="#AB8031"/>
<path d="M208.938 304.813C209.966 304.8 210.994 304.788 212.053 304.775C213.525 304.772 213.525 304.772 215.027 304.77C215.932 304.765 216.837 304.761 217.769 304.757C220 305 220 305 222 307C222.359 309.802 222.498 311.341 220.766 313.635C218.52 315.371 217.255 315.387 214.438 315.398C213.558 315.402 212.679 315.406 211.773 315.41C210.858 315.399 209.943 315.387 209 315.375C207.627 315.392 207.627 315.392 206.227 315.41C205.347 315.406 204.468 315.402 203.562 315.398C202.358 315.393 202.358 315.393 201.129 315.388C198.483 314.906 197.559 314.171 196 312C196.724 302.95 201.104 304.817 208.938 304.813Z" fill="#AB7F31"/>
<path d="M283.562 340.602C284.881 340.596 284.881 340.596 286.227 340.59C287.142 340.601 288.057 340.613 289 340.625C290.373 340.608 290.373 340.608 291.773 340.59C292.653 340.594 293.532 340.598 294.437 340.602C295.642 340.607 295.642 340.607 296.871 340.612C299.518 341.094 300.438 341.831 302 344C301.812 347.125 301.812 347.125 301 350C297.23 351.885 292.648 351.185 288.5 351.188C287.524 351.2 286.548 351.212 285.543 351.225C284.145 351.228 284.145 351.228 282.719 351.23C281.862 351.235 281.006 351.239 280.123 351.243C278 351 278 351 276 349C275.641 346.198 275.502 344.659 277.234 342.365C279.48 340.629 280.745 340.613 283.562 340.602Z" fill="#AB7F31"/>
<path d="M261.719 257.734C262.651 257.732 263.583 257.729 264.543 257.727C265.519 257.734 266.495 257.742 267.5 257.75C268.476 257.742 269.452 257.735 270.457 257.727C271.389 257.729 272.321 257.732 273.281 257.734C274.138 257.737 274.994 257.739 275.877 257.741C278 258 278 258 280 260C279.75 263.562 279.75 263.562 279 267C275.356 268.822 271.074 268.228 267.062 268.25C266.143 268.271 265.223 268.291 264.275 268.312C263.392 268.318 262.508 268.323 261.598 268.328C260.788 268.337 259.979 268.347 259.145 268.356C256.484 267.914 255.58 267.157 254 265C254.41 259.391 256.246 257.749 261.719 257.734Z" fill="#AB7F31"/>
<path d="M174.719 223.734C175.651 223.732 176.583 223.729 177.543 223.727C178.519 223.734 179.495 223.742 180.5 223.75C181.476 223.742 182.452 223.735 183.457 223.727C184.389 223.729 185.321 223.732 186.281 223.734C187.138 223.737 187.994 223.739 188.877 223.741C191 224 191 224 193 226C193.25 229 193.25 229 193 232C190.509 234.491 189.715 234.257 186.281 234.266C185.349 234.268 184.417 234.271 183.457 234.273C182.481 234.266 181.505 234.258 180.5 234.25C179.524 234.258 178.548 234.265 177.543 234.273C176.611 234.271 175.679 234.268 174.719 234.266C173.862 234.263 173.006 234.261 172.123 234.259C170 234 170 234 168 232C167.75 229 167.75 229 168 226C170.491 223.509 171.285 223.743 174.719 223.734Z" fill="#AB7F31"/>
<path d="M169.062 188.562C172 189 172 189 174 191C174.514 197.042 173.57 203.157 172 209C170 211 170 211 167 211.25C164 211 164 211 162 209C161.938 206.5 162.001 204.169 162.187 201.688C162.264 200.371 162.34 199.055 162.418 197.699C163.182 192.846 163.845 189.308 169.062 188.562Z" fill="#EDB95D"/>
<path d="M183 114C183.66 114.33 184.32 114.66 185 115C179.72 120.28 174.44 125.56 169 131C169 126.924 170.26 126.014 173 123C175.032 121.141 177.098 119.335 179.195 117.551C181.077 115.973 181.077 115.973 183 114Z" fill="#DEB159"/>
</svg>
