<svg width="500" height="500" viewBox="0 0 500 500" fill="none" xmlns="http://www.w3.org/2000/svg">
<path d="M210.312 75.875C211.529 75.9162 212.746 75.9575 214 76C216.696 81.3911 215.561 90.3289 214.352 96.0859C210.717 106.928 203.103 117.93 192.875 123.437C189.82 124.834 187.399 125.425 184 125C181.732 121.348 181.61 117.987 181.375 113.75C181.263 111.855 181.263 111.855 181.148 109.922C181.099 108.958 181.05 107.993 181 107C178.36 109.31 175.72 111.62 173 114C173.791 117.164 174.515 119.205 176 122C180.578 130.618 179.998 140.453 177.438 149.687C175.337 155.921 172.101 160.897 168 166C160.46 162.461 155.582 156.801 152.062 149.25C151.081 146.246 150.716 144.124 151 141C150.34 141 149.68 141 149 141C148.773 141.639 148.546 142.279 148.312 142.937C146.514 147.133 144.261 151.039 142 155C142.743 155.103 143.485 155.206 144.25 155.312C149.612 156.653 153.444 160.78 156.555 165.219C163.615 177.418 162.927 188.739 159.423 201.92C158.959 203.616 158.481 205.308 158 207C155.128 207.843 153.563 208.234 150.754 207.066C143.399 202.019 136.523 195.097 134.575 186.02C134.266 183.891 134.024 181.766 133.812 179.625C133.731 178.889 133.649 178.153 133.564 177.395C133.366 175.597 133.182 173.799 133 172C114.658 212.999 114.697 267.86 125 311C125.251 312.072 125.502 313.144 125.761 314.249C127.343 320.882 129.094 327.453 131 334C131.195 334.673 131.39 335.346 131.59 336.04C132.664 339.715 133.813 343.36 135 347C135.491 348.566 135.491 348.566 135.992 350.164C137.671 355.409 139.491 360.341 142.066 365.211C143.555 368.064 144.752 371.036 146 374C149.051 381.171 152.524 388.091 156.125 395C156.693 396.091 157.26 397.183 157.845 398.307C162.054 406.338 166.489 414.201 171.172 421.965C172.165 423.614 173.139 425.278 174 427C170.876 425.621 168.837 424.053 166.496 421.578C165.843 420.89 165.191 420.201 164.518 419.492C163.832 418.752 163.145 418.012 162.438 417.25C161.724 416.485 161.011 415.72 160.277 414.932C133.208 385.582 110.56 348.256 102 309C101.799 308.091 101.598 307.181 101.392 306.245C99.8447 299.179 98.3425 292.107 97 285C96.8095 284.026 96.6189 283.051 96.4226 282.048C94.6882 272.239 94.562 262.494 94.5625 252.562C94.5608 251.669 94.559 250.775 94.5573 249.855C94.5737 230.456 95.9701 210.878 103.023 192.616C103.977 190.062 104.754 187.509 105.496 184.887C106.936 179.977 108.856 175.424 111.062 170.812C111.454 169.994 111.845 169.176 112.249 168.333C122.78 146.882 138.81 127.916 159 115C159.788 114.49 160.575 113.979 161.387 113.453C166.091 110.514 170.72 108.306 175.875 106.25C180.375 104.283 180.375 104.283 183.504 100.68C184.125 98.9788 184.693 97.257 185.203 95.5195C187.655 87.7657 194.366 82.269 201 78C204.242 76.4646 206.731 75.7536 210.312 75.875Z" fill="#729B4B"/>
<path d="M369 70.9999C359 76.9999 359 76.9999 356.547 78.4414C341.808 87.4609 328.24 98.4098 314.943 109.397C313.724 110.403 312.502 111.404 311.275 112.399C302.958 119.152 295.281 126.513 287.687 134.062C286.768 134.972 285.849 135.882 284.902 136.82C278.844 142.906 273.328 149.27 268 156C267.107 157.096 266.214 158.191 265.32 159.285C249.448 179.365 237.055 202.97 229.191 227.312C228.045 230.861 226.757 234.326 225.437 237.812C217.324 260.644 213.8 284.88 212.205 308.961C212.061 311.093 211.904 313.224 211.737 315.354C210.945 325.885 210.759 336.38 210.75 346.937C210.748 348.303 210.748 348.303 210.746 349.696C210.75 362.08 211.127 374.358 212.312 386.687C212.43 387.924 212.548 389.161 212.669 390.435C213.483 398.064 214.828 405.451 216.501 412.929C217 416 217 416 216 419C215.602 417.498 215.602 417.498 215.195 415.965C214.839 414.622 214.482 413.28 214.125 411.937C213.951 411.281 213.777 410.624 213.598 409.947C212.744 406.738 211.866 403.546 210.93 400.359C210.093 397.336 209.484 394.409 209 391.312C208.856 390.401 208.711 389.49 208.562 388.551C208.284 386.793 208.284 386.793 208 385C207.688 383.139 207.376 381.278 207.062 379.418C205.984 372.954 204.975 366.481 204 360C203.752 358.401 203.752 358.401 203.5 356.769C202.962 353.184 202.469 349.595 202 346C201.908 345.297 201.816 344.594 201.722 343.87C199.972 330.014 199.689 316.254 199.739 302.299C199.75 298.741 199.739 295.183 199.727 291.625C199.719 279.559 200.154 267.926 202 256C202.313 253.398 202.593 250.793 202.875 248.187C203.65 241.977 204.729 235.877 206 229.75C206.166 228.939 206.332 228.129 206.503 227.294C206.667 226.532 206.831 225.769 207 224.984C207.217 223.974 207.217 223.974 207.437 222.944C208 221 208 221 209.006 219.071C210.165 216.656 210.51 214.529 210.898 211.883C211.861 206.247 213.524 201.179 215.625 195.875C215.978 194.97 216.332 194.066 216.696 193.134C225.797 170.166 238.037 148.195 255 130C255.66 130 256.32 130 257 130C257.21 129.456 257.42 128.912 257.637 128.352C259.504 125.13 262.078 122.846 264.812 120.375C265.394 119.847 265.975 119.319 266.573 118.776C277.295 109.156 288.738 101.429 301.123 94.1115C302.693 93.1817 304.252 92.2336 305.809 91.2812C308.755 89.5585 311.854 88.3156 315 86.9999C316.083 86.4121 316.083 86.4121 317.187 85.8124C319 84.9999 319 84.9999 323 84.9999C323 84.3399 323 83.6799 323 82.9999C333.564 79.1273 344.157 75.5183 355 72.4999C355.937 72.2329 356.873 71.966 357.838 71.6909C358.717 71.4525 359.595 71.2142 360.5 70.9687C361.273 70.7566 362.047 70.5446 362.844 70.3261C365.204 69.969 366.748 70.2654 369 70.9999Z" fill="#729A4B"/>
<path d="M370 219C369.238 219.69 368.476 220.379 367.691 221.09C359.448 228.58 351.311 236.126 344.059 244.602C342.422 246.509 340.767 248.395 339.098 250.273C331.229 259.171 323.964 268.381 317 278C316.49 278.699 315.981 279.398 315.456 280.119C300.671 300.461 287.136 322.511 278 346C277.285 347.792 276.569 349.584 275.852 351.375C271.467 362.419 267.349 373.485 263.71 384.795C262.451 388.703 261.165 392.602 259.875 396.5C259.501 397.637 259.501 397.637 259.12 398.796C257.796 402.778 256.356 406.646 254.688 410.5C252.933 414.668 252.421 418.567 252.176 423.066C252 425 252 425 251 426C248 426.125 248 426.125 245 426C243.263 424.263 243.788 421.863 243.719 419.496C243.681 418.362 243.644 417.229 243.605 416.061C243.571 414.865 243.536 413.669 243.5 412.437C243.285 405.223 242.982 398.151 242 391C241.92 389.356 241.869 387.709 241.875 386.062C241.872 385.311 241.87 384.559 241.867 383.785C242 382 242 382 243 381C244.666 380.959 246.334 380.957 248 381C250.057 386.168 250.415 390.892 250.625 396.375C250.664 397.206 250.702 398.038 250.742 398.895C250.836 400.929 250.919 402.965 251 405C251.105 404.452 251.211 403.903 251.32 403.339C255.212 383.208 255.212 383.208 258 374C257.257 374.33 256.515 374.66 255.75 375C253 376 253 376 249 376C245.709 366.949 245.836 357.896 249.875 349.117C252.975 343.284 257.083 339.821 263 337C265.403 336.38 267.508 336.156 270 336C270.33 333.69 270.66 331.38 271 329C270.336 329.361 269.672 329.722 268.988 330.094C267.664 330.79 267.664 330.79 266.312 331.5C265.007 332.196 265.007 332.196 263.676 332.906C260.882 334.048 258.984 334.215 256 334C254.011 323.455 253.404 312.499 259 303C262.741 297.557 267.267 292.995 273.812 291.25C277.884 290.931 281.919 290.918 286 291C286.33 291.99 286.66 292.98 287 294C287.45 293.103 287.9 292.206 288.363 291.281C304.908 258.937 328.916 232.158 363.176 218.758C366.013 217.997 367.302 217.962 370 219Z" fill="#7AA151"/>
<path d="M431 245C428.256 247.927 425.567 250.017 422.125 252.062C415.629 256.108 409.754 260.781 403.798 265.565C402.039 266.968 400.267 268.353 398.488 269.73C387.337 278.373 376.666 287.516 366.219 296.996C364.207 298.813 362.173 300.599 360.125 302.375C348.359 312.647 336.91 323.13 327.141 335.359C325.202 337.751 323.198 340.037 321.125 342.312C311.938 352.556 303.858 363.723 296 375C295.37 375.902 294.739 376.803 294.09 377.732C287.834 386.72 281.749 395.818 275.687 404.937C274.703 406.417 273.718 407.897 272.732 409.377C270.931 412.083 269.131 414.789 267.331 417.496C265.223 420.666 263.112 423.833 261 427C259.304 422.93 260.856 419.642 262.312 415.75C262.582 415.012 262.852 414.274 263.131 413.513C284.948 354.831 319.482 285.106 379.16 256.484C395.946 248.99 412.489 244.463 431 245Z" fill="#779F4F"/>
<path d="M210.312 75.875C211.529 75.9163 212.746 75.9575 214 76C216.696 81.3912 215.561 90.329 214.352 96.086C210.717 106.929 203.103 117.93 192.875 123.438C189.82 124.834 187.399 125.425 184 125C181.731 121.348 181.61 117.987 181.375 113.75C181.3 112.487 181.225 111.223 181.148 109.922C181.099 108.958 181.05 107.993 181 107C178.36 109.31 175.72 111.62 173 114C173.791 117.164 174.515 119.205 176 122C180.578 130.618 179.998 140.453 177.437 149.688C175.337 155.921 172.101 160.897 168 166C160.438 162.451 156.078 157.107 152.328 149.695C149.785 142.619 149.726 134.204 151.914 126.984C153.104 124.483 154.424 122.275 156 120C156.565 119.07 156.565 119.07 157.141 118.121C162.044 111.185 171.977 106.663 179.844 104.059C182.166 103.175 182.166 103.175 183.152 100.898C183.411 100.066 183.67 99.233 183.937 98.375C187.442 88.7093 194.126 81.2552 203.508 76.8125C205.96 76.013 207.752 75.7882 210.312 75.875Z" fill="#DBA017"/>
<path d="M333 88C332.558 88.331 332.117 88.6619 331.662 89.0029C318.181 99.1337 305.271 109.678 293.085 121.344C289.215 125 289.215 125 287 125C286.67 125.99 286.34 126.98 286 128C284.469 129.438 284.469 129.438 282.5 131C278.248 134.61 274.879 138.624 271.418 142.984C269.3 145.626 267.125 148.19 264.907 150.747C238.786 180.974 224.333 217.702 214.312 255.875C214.015 257.004 213.717 258.133 213.41 259.296C211.635 266.157 210.154 273.007 209 280C208.34 280 207.68 280 207 280C208.141 225.728 225.181 170.961 263 131C263.859 130.065 264.717 129.131 265.602 128.168C276.505 116.569 315.706 82.2355 333 88Z" fill="#77AB45"/>
<path d="M150 129C150.66 129.33 151.32 129.66 152 130C151.67 133.63 151.34 137.26 151 141C150.34 141 149.68 141 149 141C148.505 138.525 148.505 138.525 148 136C140.856 144.09 135.979 153.501 131 163C130.664 163.632 130.329 164.264 129.983 164.915C120.089 183.775 115.874 203.941 114 225C113.906 225.941 113.813 226.881 113.716 227.851C112.963 235.863 112.807 243.83 112.812 251.875C112.813 252.55 112.813 253.225 112.813 253.92C112.836 266.032 113.472 277.98 115 290C115.096 290.787 115.193 291.573 115.292 292.384C118.663 318.94 126.625 344.802 137.65 369.152C140.104 374.687 140.104 374.687 139 378C108.784 333.966 93.7713 273.964 103.016 221.035C108.873 190.322 118.724 156.664 143 135C143.66 135 144.32 135 145 135C145 134.34 145 133.68 145 133C146.626 131.618 148.292 130.281 150 129Z" fill="#71A740"/>
<path d="M408 253C406.457 257.099 403.847 258.883 400.375 261.438C399.193 262.322 398.012 263.209 396.832 264.098C396.208 264.567 395.583 265.036 394.94 265.52C381.243 275.969 368.121 287.27 355.371 298.848C353.724 300.342 352.07 301.829 350.41 303.309C346.019 307.225 341.749 311.194 337.637 315.402C336.035 316.965 334.369 318.35 332.625 319.75C326.847 324.589 322.376 330.853 317.855 336.84C317.243 337.553 316.631 338.266 316 339C315.34 339 314.68 339 314 339C313.763 339.713 313.526 340.426 313.281 341.16C311.785 344.476 309.897 346.703 307.5 349.438C303.04 354.599 299.052 359.986 295.225 365.631C294.196 367.12 293.104 368.565 292 370C291.34 370 290.68 370 290 370C297.043 345.31 316.398 321.126 333 302C333.81 301.062 334.619 300.123 335.453 299.156C337.595 296.729 339.781 294.356 342 292C342.718 291.218 343.436 290.435 344.176 289.629C358.906 274.156 385.332 253 408 253Z" fill="#81B44E"/>
<path d="M373.438 146.625C374.436 146.613 375.434 146.602 376.463 146.59C382.676 146.614 387.329 147.445 393 150C392.168 158.527 387.669 164.052 381.715 169.848C371.662 177.817 360.456 179.978 348 179C344.743 178.025 341.903 176.762 339 175C339.131 166.882 341.645 162.067 347 156C355.117 148.439 362.579 146.499 373.438 146.625Z" fill="#FDB100"/>
<path d="M285.625 184C290.133 189.694 290.697 195.983 290 203C287.771 215.887 282.378 226.756 273 236C270.723 236.809 270.723 236.809 269 237C262.044 226.662 259.853 218.578 261 206C262.715 197.69 267.855 191.647 274 186C281.703 181.012 281.703 181.012 285.625 184Z" fill="#DBA118"/>
<path d="M147 156C154.39 160.703 158.166 167.371 161.312 175.313C163.4 186.511 161.05 196.271 158 207C155.128 207.843 153.563 208.234 150.754 207.066C142.525 201.419 136.159 193.998 134 184C132.179 173.591 132.826 167.439 138.238 158.414C141.033 154.584 142.619 154.748 147 156Z" fill="#DAA016"/>
<path d="M325 151C328.801 157.651 329.108 164.488 328 172C323.381 183.871 313.699 194.805 302 200C301.01 200 300.02 200 299 200C294.692 188.807 293.309 180.757 297.875 169.469C301.389 161.758 307.157 155.299 315.125 152.063C318.465 150.98 321.479 150.736 325 151Z" fill="#FDB100"/>
<path d="M230 268C232.998 269.325 234.891 270.683 237 273.188C237.712 274.013 237.712 274.013 238.438 274.855C248.666 288.894 250.726 305.716 248.535 322.578C248.096 325.078 247.608 327.537 247 330C242.202 330 241.434 329.174 238 326C228.023 314.81 222.647 302.405 222.781 287.395C223.261 279.95 225.495 273.903 230 268Z" fill="#DBA118"/>
<path d="M255 222C256.512 223.785 256.512 223.785 257.687 226.063C258.083 226.796 258.479 227.529 258.887 228.285C261.627 234.968 262.363 241.167 262.312 248.313C262.307 249.149 262.301 249.986 262.295 250.848C262.071 262.308 258.408 270.972 253 281C246.632 278.481 243.528 271.582 240.187 265.938C236.673 257.243 235.146 247.103 237.91 238.004C246.052 219.127 246.052 219.127 255 222Z" fill="#DBA118"/>
<path d="M371 189C370.433 194.103 366.562 196.718 362.844 199.77C352.534 207.931 343.578 211.549 330.312 211.375C329.415 211.387 328.517 211.398 327.592 211.41C322.019 211.386 317.841 210.865 313 208C311.918 206.051 311.918 206.051 312 204C315.65 195.99 324.261 190.311 332.187 187.125C344.549 183.477 359.287 183.144 371 189Z" fill="#DBA017"/>
<path d="M129 204C136.188 204.369 141.453 208.211 146.18 213.387C156.472 226.69 157.728 238.776 157 255C148.369 254.166 141.396 250.049 135.625 243.562C134.722 242.396 133.847 241.208 133 240C132.539 239.349 132.077 238.698 131.602 238.027C127.132 231.323 125.65 224.85 125.688 216.875C125.671 216.185 125.655 215.496 125.639 214.785C125.634 210.332 126.356 207.586 129 204Z" fill="#DBA118"/>
<path d="M223 124C223.903 134.617 217.6 143.486 211.035 151.356C203.545 159.442 193.694 164.412 183 167C182.01 167 181.02 167 180 167C178.905 156.702 181.857 149.431 188.086 141.266C198.285 129.456 207.243 123.218 223 124Z" fill="#DBA016"/>
<path d="M295.375 248.813C296.206 248.826 297.038 248.84 297.895 248.854C299.93 248.889 301.965 248.942 304 249C304.208 259.214 300.927 265.539 294 273C284.664 281.851 274.893 286.253 262 286C262.088 283.791 262.196 281.583 262.312 279.375C262.371 278.145 262.429 276.915 262.488 275.648C263.674 267.195 269.344 259.817 276 254.688C282.509 249.955 287.457 248.566 295.375 248.813Z" fill="#DBA21A"/>
<path d="M131 254C138.853 254.334 144.085 257.931 149.434 263.562C153.777 268.697 157.539 273.727 160 280C160.37 280.892 160.74 281.784 161.121 282.703C163.982 290.266 164.467 296.962 164 305C153.459 303.146 144.595 296.842 138.316 288.274C130.938 277.673 129.204 269.906 130 257C130.33 256.01 130.66 255.02 131 254Z" fill="#DBA11A"/>
<path d="M286 291C288.677 300.803 286.113 309.591 281.25 318.25C276.332 325.953 269.609 330.872 261 334C258.195 334.133 258.195 334.133 256 334C254.011 323.455 253.404 312.499 259 303C262.741 297.557 267.267 292.995 273.812 291.25C277.884 290.931 281.919 290.918 286 291Z" fill="#D99E13"/>
<path d="M319.938 214.813C320.736 214.8 321.535 214.788 322.357 214.775C326.696 214.765 330.048 214.98 334 217C333.821 224.149 329.101 227.963 324.297 232.668C311.876 243.957 298.961 244.333 283 244C284.12 234.593 289.196 228.275 296 222C304.065 216.591 310.422 214.82 319.938 214.813Z" fill="#DBA016"/>
<path d="M203 167C204.741 168.741 204.296 171.001 204.375 173.375C204.262 185.286 197.459 194.346 189.625 202.75C184.563 207.644 179.036 210.296 172 211C172 211.66 172 212.32 172 213C171.01 213 170.02 213 169 213C168.341 199.429 170.14 188.853 179 178C185.726 171.057 193.166 166.563 203 167Z" fill="#DBA119"/>
<path d="M190 255C190.651 256.247 191.295 257.498 191.937 258.75C192.297 259.446 192.657 260.142 193.027 260.859C196.05 267.513 196.098 275.261 194.059 282.207C190.501 291.072 185.934 299.595 177 304C174.891 303.953 174.891 303.953 173 303C171.769 300.891 171.769 300.891 170.812 298.25C170.327 296.958 170.327 296.958 169.832 295.641C166.6 285.385 166.966 276.402 171.936 266.82C175.962 259.725 181.71 254.782 190 255Z" fill="#DBA11A"/>
<path d="M192 210C195.123 219.368 193.277 229.4 189.406 238.195C185.389 246.207 180.553 250.148 173 255C172.01 255.66 171.02 256.32 170 257C168.68 257 167.36 257 166 257C162.437 249.746 162.933 239.741 164.688 231.945C169.226 219.805 178.541 209.751 192 210Z" fill="#DB9F14"/>
<path d="M137 301C142.88 300.394 145.879 303.363 150.355 306.809C159.892 314.711 166.11 326.285 167.801 338.578C168.062 341.75 168.141 344.82 168 348C159.066 347.612 151.682 342.452 145.668 336.066C139.426 328.334 135.822 321.974 135.875 312C135.871 311.276 135.867 310.551 135.863 309.805C135.869 306.607 135.982 304.054 137 301Z" fill="#DCA21C"/>
<path d="M222 320C227.314 320.647 229.094 322.763 232.367 326.773C234.766 330.045 236.504 333.232 238 337C238.372 337.911 238.745 338.823 239.129 339.762C243.245 351.194 242.926 363.13 241 375C230.617 369.404 223.512 360.265 219.641 349.16C216.576 338.826 217.313 329.647 222 320Z" fill="#DBA21A"/>
<path d="M272 336C274.208 338.208 273.312 343.515 273.315 346.57C273.14 355.893 270.509 363.508 264 370.34C259.457 374.111 254.88 376 249 376C245.709 366.949 245.836 357.896 249.875 349.117C254.413 340.578 262.294 335.578 272 336Z" fill="#D9A017"/>
<path d="M191 302C195.361 309.884 196.492 316.657 194.047 325.414C191.944 331.311 190.049 336.059 185 340C183.894 340.935 182.79 341.873 181.688 342.812C180.801 343.534 179.914 344.256 179 345C176.746 344.078 175.305 343.467 173.953 341.398C172.16 336.239 171.692 331.251 171.625 325.812C171.611 325.136 171.597 324.459 171.583 323.761C171.653 316.218 174.973 311.378 180 306C183.765 303.019 186.142 301.428 191 302Z" fill="#DBA11A"/>
<path d="M373.438 146.625C374.436 146.613 375.434 146.602 376.463 146.59C382.676 146.614 387.329 147.445 393 150C392.168 158.527 387.669 164.052 381.715 169.848C371.662 177.817 360.456 179.978 348 179C344.743 178.025 341.903 176.762 339 175C339.131 166.882 341.645 162.067 347 156C355.117 148.439 362.579 146.499 373.438 146.625ZM348 162C345.765 164.943 343.923 167.541 344.125 171.375C344.902 173.191 344.902 173.191 347 174C359.773 174.821 369.967 173.467 380 165C385.182 159.743 385.182 159.743 387 153C372.37 148.41 358.538 150.421 348 162Z" fill="#DBA119"/>
<path d="M164 118C167.084 118.33 167.978 118.977 170.125 121.312C174.824 128.048 174.57 133.894 174 142C172.829 148.332 170.416 153.581 167 159C162.228 157.233 159.333 153.513 157.016 149.145C154.06 142.16 154.071 135.906 156.687 128.812C158.552 124.529 160.797 121.381 164 118Z" fill="#FDB100"/>
<path d="M325 151C328.801 157.651 329.108 164.488 328 172C323.381 183.871 313.699 194.805 302 200C301.01 200 300.02 200 299 200C294.692 188.807 293.309 180.757 297.875 169.469C301.389 161.758 307.157 155.299 315.125 152.063C318.465 150.98 321.479 150.736 325 151ZM312.059 159.352C306.252 164.001 301.357 169.52 300 177C299.637 182.709 299.336 188.47 301 194C309.061 192.328 313.677 186.532 318 180C318.49 179.332 318.98 178.665 319.484 177.977C323.906 171.294 323.499 164.8 323 157C318.027 155.632 316.172 156.537 312.059 159.352Z" fill="#DBA119"/>
<path d="M169 113C174.496 117.397 177.812 123.116 179 130C180.444 143.878 176.673 155.208 168 166C160.438 162.451 156.078 157.107 152.328 149.695C149.785 142.619 149.726 134.204 151.914 126.984C155.257 119.953 160.256 110.374 169 113ZM162.5 119.469C157.572 126.142 154.317 132.229 154.652 140.707C155.78 148.146 159.891 153.704 165 159C168.161 158.314 168.161 158.314 169.352 155.672C169.772 154.708 170.192 153.743 170.625 152.75C171.05 151.796 171.476 150.842 171.914 149.859C174.7 142.523 175.908 132.776 172.953 125.379C171.206 122.579 169.331 120.331 167 118C164.007 117.65 164.007 117.65 162.5 119.469Z" fill="#DA9F15"/>
<path d="M144 160C150.506 164.989 154.4 170.11 157 178C157.215 180.653 157.332 183.163 157.312 185.812C157.311 186.521 157.31 187.229 157.309 187.959C157.21 193.3 156.372 197.255 154 202C147.807 200.499 144.171 195.398 140.887 190.258C137.735 183.537 138.171 175.222 139 168C140.322 164.695 141.697 162.763 144 160Z" fill="#FDB100"/>
<path d="M283 188C286.443 195.465 286.019 203.915 283.437 211.625C277.543 225.91 277.543 225.91 271.781 229.309C270.899 229.651 270.899 229.651 270 230C264.976 222.465 265.008 214.725 266 206C268.07 198.939 272.369 193.638 278 189C280 188 280 188 283 188Z" fill="#FDB100"/>
<path d="M210 81C211.234 92.7913 207.954 101.113 201.188 110.52C197.909 114.464 194.507 117.542 190 120C189.01 120 188.02 120 187 120C186.423 108.114 186.834 98.5904 194.813 89.0625C199.317 84.3815 203.257 81 210 81Z" fill="#FDB100"/>
<path d="M250 227C252.39 227.951 253.724 228.521 255.029 230.786C256.952 236.83 257.54 242.42 257.5 248.75C257.499 249.709 257.499 250.668 257.498 251.657C257.332 259.618 255.749 265.903 252 273C251.34 273 250.68 273 250 273C242.83 263.317 240.915 253.905 242 242C243.49 236.194 245.883 231.412 250 227Z" fill="#FDB100"/>
<path d="M364 191C360.822 198.317 352.893 202.239 345.773 205.094C337.439 207.095 326.221 207.74 318 205C321.542 197.251 328.366 193.878 335.948 190.846C345.282 187.499 354.627 188.035 364 191Z" fill="#FCB100"/>
<path d="M231 276C235.417 277.498 236.602 280.339 238.625 284.375C244.679 296.883 244.256 309.384 244 323C237.429 320.248 233.532 313.572 230.625 307.312C226.76 297.699 226.851 286.818 230 277C230.33 276.67 230.66 276.34 231 276Z" fill="#FDB100"/>
<path d="M299 253C298.399 261.017 293.624 267.023 287.945 272.395C281.677 277.567 276.076 279.615 268 280C267.54 272.324 269.81 268.246 274.563 262.437C281.574 254.85 288.747 252.018 299 253Z" fill="#FDB100"/>
<path d="M131 210C137.585 210.96 141.199 214.685 145.188 219.812C150.599 229.33 152.194 237.103 152 248C143.845 246.391 138.947 240.095 134.445 233.562C131.374 228.116 130.719 223.299 130.875 217.125C130.889 216.092 130.889 216.092 130.902 215.039C130.926 213.359 130.962 211.68 131 210Z" fill="#FDB100"/>
<path d="M282 295C282.615 304.527 280.018 312.477 274 320C269.539 324.614 266.55 327.282 260 328C259.008 310.026 259.008 310.026 265 303C270.16 297.69 274.408 294.655 282 295Z" fill="#FDB100"/>
<path d="M188 261C191.483 266.731 190.691 274.18 189.535 280.57C187.571 287.242 183.813 293.124 178 297C177.01 297 176.02 297 175 297C172.136 289.482 171.53 280.769 173.91 273.047C176.877 266.674 180.434 261 188 261Z" fill="#FCB100"/>
<path d="M134 260C141.625 261.069 146.205 266.645 150.687 272.562C155.695 280.063 159.456 288.885 159 298C148.411 294.136 141.764 286.261 136.68 276.453C134.151 270.759 133.6 266.202 134 260Z" fill="#FCB100"/>
<path d="M217 129C216.821 137.234 211.846 142.789 206.562 148.75C200.121 154.406 193.73 159.985 185 161C185.389 152.048 190.867 144.273 197 138C209.071 128.547 209.071 128.547 217 129Z" fill="#FCB100"/>
<path d="M327 219C327 223.919 326.388 224.532 323 228C312.136 236.427 302.759 240.437 289 240C291 232.889 297.083 226.998 303.141 223.031C310.906 218.724 318.251 218.635 327 219Z" fill="#FCB100"/>
<path d="M189 215C189.918 225.178 187.66 234.92 181.125 243C178.072 246.172 174.712 248.644 171 251C170.34 251 169.68 251 169 251C168.334 240.472 167.865 231.568 175 223C183.529 215 183.529 215 189 215Z" fill="#FCB100"/>
<path d="M199 173C198.515 183.026 194.852 190.789 188.039 198.172C184.425 201.412 179.049 206 174 206C172.921 197.061 176.272 190.343 181 183C186.022 177.38 191.158 172.564 199 173Z" fill="#FCB100"/>
<path d="M141 307C149.818 309.405 154.257 317.612 158.519 325.035C161.261 330.526 162.246 334.855 162 341C153.664 338.709 148.293 332.654 144 325.312C140.944 319.242 140.885 313.664 141 307Z" fill="#FCB100"/>
<path d="M269 341C269.517 350.141 268.163 358.016 262 365.062C259.733 367.437 257.746 369.169 255 371C254.01 371 253.02 371 252 371C251.172 354.829 251.172 354.829 256 348C259.985 343.811 263.079 341 269 341Z" fill="#FCB100"/>
<path d="M245.562 380.938C246.769 380.968 246.769 380.968 248 381C249.671 385.444 250.349 389.389 250.633 394.121C250.674 394.784 250.716 395.447 250.759 396.13C250.845 397.524 250.927 398.918 251.005 400.313C251.124 402.428 251.255 404.543 251.387 406.658C252.156 419.334 252.156 419.334 252 425C251 426 251 426 248 426.125C245 426 245 426 244 425C243.854 423.169 243.773 421.332 243.719 419.496C243.681 418.362 243.644 417.229 243.605 416.061C243.571 414.865 243.536 413.669 243.5 412.438C243.285 405.223 242.982 398.151 242 391C241.92 389.356 241.869 387.709 241.875 386.062C241.872 385.311 241.87 384.559 241.867 383.785C242.083 380.886 242.646 381.009 245.562 380.938Z" fill="#DAA21D"/>
<path d="M224 327C228.941 329.135 230.719 332.244 233 337C236.808 346.821 237.523 355.625 237 366C229.285 360.168 224.599 352.581 223 343C222.323 332.031 222.323 332.031 224 327Z" fill="#FCB100"/>
<path d="M171 351C173.007 351.287 175.009 351.619 177 352C177.431 357.426 177.858 362.852 178.282 368.278C178.426 370.122 178.572 371.966 178.718 373.809C178.929 376.468 179.137 379.126 179.344 381.785C179.409 382.602 179.475 383.419 179.543 384.261C179.896 388.857 180.065 393.39 180 398C178.344 398.382 176.675 398.714 175 399C169.534 393.534 171.349 373.855 170.812 366.062C170.74 365.035 170.74 365.035 170.665 363.987C170.527 362.024 170.398 360.061 170.27 358.098C170.193 356.948 170.117 355.798 170.038 354.614C170.026 353.751 170.013 352.889 170 352C170.33 351.67 170.66 351.34 171 351Z" fill="#DBA320"/>
<path d="M340 237C340.495 238.485 340.495 238.485 341 240C340.588 240.389 340.175 240.779 339.75 241.18C335.587 245.213 331.922 249.461 328.352 254.023C326.6 256.241 324.828 258.428 323.023 260.602C313.264 272.387 304.191 284.637 296.086 297.629C295.728 298.081 295.369 298.534 295 299C294.34 299 293.68 299 293 299C297.315 275.443 322.233 251.101 340 237Z" fill="#82B44F"/>
<path d="M267 365C267.66 365 268.32 365 269 365C268.426 369.86 267.415 374.193 265.812 378.812C265.362 380.125 264.911 381.437 264.461 382.75C264.223 383.437 263.986 384.124 263.741 384.832C262.969 387.091 262.22 389.356 261.477 391.625C254.601 412.599 254.601 412.599 251 418C250.3 407.338 252.156 397.655 254.492 387.304C254.939 385.274 255.335 383.233 255.723 381.191C257.273 373.606 257.273 373.606 261 370.5C261.99 370.005 262.98 369.51 264 369C265.023 367.684 266.031 366.356 267 365Z" fill="#6E9547"/>
<path d="M189 308C191.212 315.732 191.017 322.934 187.188 330.062C185.418 333.038 183.723 335.82 181 338C180.01 338 179.02 338 178 338C175.465 331.979 174.88 325.827 176.723 319.531C179.201 313.511 181.901 308 189 308Z" fill="#FCB100"/>
<path d="M182 104C180.635 107.153 179.162 108.97 176.5 111.125C174.57 112.703 172.765 114.235 171 116C169.35 114.35 167.7 112.7 166 111C168.289 109.828 170.581 108.663 172.875 107.5C173.526 107.166 174.177 106.832 174.848 106.488C179.773 104 179.773 104 182 104Z" fill="#94B56B"/>
<path d="M150 129C150.66 129.33 151.32 129.66 152 130C151.67 133.63 151.34 137.26 151 141C150.34 141 149.68 141 149 141C148.67 139.35 148.34 137.7 148 136C147.01 136.66 146.02 137.32 145 138C144.34 138 143.68 138 143 138C142.01 138.66 141.02 139.32 140 140C140.812 138.062 140.812 138.062 142 136C142.99 135.67 143.98 135.34 145 135C145 134.34 145 133.68 145 133C146.626 131.618 148.293 130.281 150 129Z" fill="#7FAE4E"/>
<path d="M286 303C286.66 303.66 287.32 304.32 288 305C287.75 307.125 287.75 307.125 287 310C286.863 310.66 286.727 311.32 286.586 312C285.089 318.899 285.089 318.899 282 321C281.01 321.33 280.02 321.66 279 322C280.003 319.485 281.011 316.972 282.035 314.465C282.374 313.631 282.713 312.797 283.062 311.938C283.404 311.101 283.746 310.264 284.098 309.402C284.896 307.276 285.504 305.213 286 303Z" fill="#789A3E"/>
<path d="M293 299C293.66 299.33 294.32 299.66 295 300C294.674 300.508 294.348 301.016 294.012 301.539C291.434 305.599 289.067 309.648 287 314C286.34 313.67 285.68 313.34 285 313C285.953 311.039 286.913 309.081 287.875 307.125C288.409 306.034 288.942 304.944 289.492 303.82C291 301 291 301 293 299Z" fill="#76A946"/>
<path d="M250 391C250.33 392.32 250.66 393.64 251 395C251.66 395 252.32 395 253 395C252.886 396.605 252.758 398.209 252.625 399.812C252.555 400.706 252.486 401.599 252.414 402.52C252 405 252 405 250 408C250 402.39 250 396.78 250 391Z" fill="#F1E9CD"/>
<path d="M167 416C169.765 419.457 171.849 423.143 174 427C170.79 425.618 168.951 424.076 166.75 421.375C166.229 420.743 165.708 420.112 165.172 419.461C164.785 418.979 164.398 418.497 164 418C164.66 418 165.32 418 166 418C166.33 417.34 166.66 416.68 167 416Z" fill="#A6C288"/>
<path d="M210 381C210.33 381 210.66 381 211 381C211.847 386.081 212.09 390.848 212 396C209.924 392.885 209.638 391.556 209.312 387.938C209.226 387.06 209.14 386.182 209.051 385.277C209 383 209 383 210 381Z" fill="#669140"/>
<path d="M206 279C206.99 279.33 207.98 279.66 209 280C208.886 281.647 208.759 283.292 208.625 284.938C208.521 286.312 208.521 286.312 208.414 287.715C208.277 288.469 208.141 289.223 208 290C207.01 290.495 207.01 290.495 206 291C206 287.04 206 283.08 206 279Z" fill="#66983A"/>
<path d="M179 213C179.66 213.33 180.32 213.66 181 214C177.37 217.63 173.74 221.26 170 225C170 221.001 171.353 219.933 174 217C175.634 215.626 177.293 214.281 179 213Z" fill="#DEAA2F"/>
<path d="M370 219C366.732 221.178 364.838 221.473 361 222C359.329 222.278 359.329 222.278 357.625 222.562C356.759 222.707 355.892 222.851 355 223C357.161 220.839 358.521 220.284 361.375 219.312C362.531 218.904 362.531 218.904 363.711 218.488C366.201 217.957 367.616 218.189 370 219Z" fill="#B1CA95"/>
<path d="M150 131C150.33 131 150.66 131 151 131C151 134.3 151 137.6 151 141C150.34 141 149.68 141 149 141C148.023 134.945 148.023 134.945 148 133C148.66 132.34 149.32 131.68 150 131Z" fill="#82A149"/>
<path d="M418 245C422.29 245 426.58 245 431 245C429.68 246.32 428.36 247.64 427 249C426.67 248.01 426.34 247.02 426 246C423.36 246 420.72 246 418 246C418 245.67 418 245.34 418 245Z" fill="#AEC891"/>
<path d="M333 88C330.69 89.65 328.38 91.3 326 93C325.67 91.68 325.34 90.36 325 89C329.625 86.875 329.625 86.875 333 88Z" fill="#88B656"/>
<path d="M178 259C178.99 259.33 179.98 259.66 181 260C179.02 261.98 177.04 263.96 175 266C174.34 265.67 173.68 265.34 173 265C174.65 263.02 176.3 261.04 178 259Z" fill="#E0AF3C"/>
<path d="M164 113C162.417 117.274 159.494 119.265 156 122C157.31 118.07 159.25 113 164 113Z" fill="#CCA021"/>
<path d="M136 369C138.503 371.938 139.469 374.179 140 378C137.474 375.637 136.112 374.335 135 371C135.33 370.34 135.66 369.68 136 369Z" fill="#7BAB4B"/>
<path d="M369 71C365.04 72.98 365.04 72.98 361 75C361.33 73.68 361.66 72.36 362 71C365 70 365 70 369 71Z" fill="#9EBD7B"/>
</svg>
