<svg width="500" height="500" viewBox="0 0 500 500" fill="none" xmlns="http://www.w3.org/2000/svg">
<path d="M294.312 76.8124C295.567 76.8395 296.821 76.8665 298.113 76.8944C299.066 76.9292 300.019 76.964 301 76.9999C301.99 82.4449 301.99 82.4449 303 87.9999C300.36 87.6699 297.72 87.3399 295 86.9999C292.525 92.9399 292.525 92.9399 290 98.9999C291.35 99.1294 291.35 99.1294 292.727 99.2616C319.987 102.239 345.694 109.076 365.875 128.5C369.888 132.329 372.469 133.779 377.879 134.57C382.277 135.461 385.152 137.584 388 141C391.493 147.188 393.833 153.979 396.387 160.59C398.164 164.346 400.437 167.394 403 170.625C424.393 198.784 432.444 233.27 427.813 268.137C421.832 306.968 400.761 343.087 374.285 371.527C372.371 373.598 370.554 375.709 368.75 377.875C347.198 402.563 317.876 421.973 285 426C280.059 426.314 275.138 426.381 270.188 426.375C269.515 426.375 268.842 426.375 268.149 426.375C256.323 426.345 245.004 425.104 233.449 422.542C231.212 422.047 228.972 421.597 226.723 421.16C184.683 412.599 120.102 388.237 94.8828 351.367C74.0172 319.517 67.5697 277.979 75.125 240.812C76.0008 236.851 76.9715 232.924 78 229C78.2299 228.102 78.4599 227.204 78.6968 226.279C88.2482 189.75 108.932 153.748 142 134C147.229 131.126 152.615 128.566 158 126C158.913 125.563 159.826 125.125 160.766 124.675C166.836 121.767 172.914 118.876 179 116C172.502 110.98 164.751 108.17 156.477 108.551C149.165 109.877 141.841 114.368 137 120C135.515 123.189 135.515 123.189 135 126C134.01 125.505 134.01 125.505 133 125C133.263 120.602 133.536 116.491 136.731 113.237C139.11 111.708 141.475 110.518 144.062 109.375C144.983 108.952 145.903 108.53 146.851 108.095C161.073 102.215 176.639 103.243 191 108C197.101 109.827 201.799 107.776 207.625 105.812C215.316 103.343 222.943 101.172 230.875 99.6249C232.058 99.3925 232.058 99.3925 233.264 99.1554C242.58 97.4108 251.586 96.8597 261.062 96.9374C262.119 96.9419 263.175 96.9464 264.264 96.9511C266.843 96.9627 269.421 96.9791 272 96.9999C272.251 96.1272 272.503 95.2545 272.762 94.3554C274.054 90.8545 275.619 88.3201 277.812 85.3124C278.812 83.9144 278.812 83.9144 279.832 82.4882C284.258 77.4082 287.657 76.6258 294.312 76.8124Z" fill="#D54A21"/>
<path d="M294.312 76.8124C295.567 76.8395 296.821 76.8665 298.113 76.8944C299.066 76.9292 300.019 76.964 301 76.9999C301.99 82.4449 301.99 82.4449 303 87.9999C300.36 87.6699 297.72 87.3399 295 86.9999C292.525 92.9399 292.525 92.9399 290 98.9999C291.35 99.1294 291.35 99.1294 292.727 99.2616C319.987 102.239 345.694 109.076 365.875 128.5C369.888 132.329 372.468 133.779 377.879 134.57C382.277 135.461 385.152 137.584 388 141C390.883 146.072 392.99 151.535 395 157C395.392 158.065 395.784 159.129 396.188 160.226C397.292 163.995 397.135 167.093 397 171C393.464 169.232 392.745 164.336 391.475 160.723C389.398 155.173 386.718 151.6 381.492 148.523C366.882 142.112 351.36 138.809 335.909 144.812C335.18 145.122 334.451 145.431 333.699 145.75C327.296 148.353 320.743 150.464 314.166 152.574C312.04 153.257 309.918 153.948 307.795 154.641C306.438 155.079 305.08 155.516 303.723 155.953C302.503 156.346 301.284 156.74 300.028 157.145C297 158 297 158 294 158C294 158.66 294 159.32 294 160C290.04 161.32 286.08 162.64 282 164C285.363 169.453 288.98 174.22 293.375 178.875C300.169 186.104 306.18 193.806 310.77 202.641C311.671 204.368 312.636 206.062 313.637 207.734C318.114 215.624 318.718 222.016 318 231C317.67 231 317.34 231 317 231C316.96 229.972 316.92 228.945 316.879 227.887C316.19 217.342 313.619 211.657 306 204C300 197.282 300 197.282 300 195C299.34 195 298.68 195 298 195C297.406 194.243 296.811 193.487 296.199 192.707C293.904 189.882 291.937 188.504 288.812 186.687C284.82 184.289 281.694 181.821 278.438 178.5C275.526 175.774 275.526 175.774 271.816 174.719C269.466 174.974 269.466 174.974 267.035 175.492C262.986 176.17 259.035 176.145 254.938 176.125C253.793 176.131 253.793 176.131 252.625 176.137C247.127 176.127 247.127 176.127 246 175C242.755 174.55 239.511 174.183 236.254 173.838C235.559 173.758 234.864 173.679 234.148 173.598C233.521 173.531 232.894 173.464 232.248 173.395C230 173 230 173 227.013 171.981C221.665 170.418 216.163 170.695 210.637 170.699C209.45 170.695 208.262 170.691 207.039 170.686C204.534 170.68 202.028 170.68 199.523 170.684C195.711 170.687 191.9 170.664 188.088 170.639C185.646 170.636 183.204 170.636 180.762 170.637C179.067 170.623 179.067 170.623 177.339 170.609C170.401 170.649 164.515 171.589 158 174C158.613 171.038 159.254 169.619 161 167C142.274 172.544 142.274 172.544 128 185C126.499 188.451 126.499 188.451 125.312 192.125C124.896 193.344 124.48 194.564 124.051 195.82C123.704 196.869 123.357 197.919 123 199C122 202 122 202 119.937 203.187C118.978 203.59 118.978 203.59 118 204C117.534 192.375 118.963 186.82 126.828 178.223C129.408 175.582 132.124 173.185 134.945 170.808C137.193 168.83 139.239 166.721 141.312 164.562C154.746 150.942 167.127 147.614 185.787 147.48C193.988 147.655 200.981 149.787 208.645 152.531C214.316 154.543 220.018 155.377 226 156C225.456 154.265 224.889 152.537 224.312 150.812C223.999 149.849 223.686 148.887 223.363 147.894C221.747 144.464 219.785 142.555 217 140C215.88 138.849 215.88 138.849 214.738 137.676C207.4 130.527 199.397 125.936 190.364 121.238C187.997 119.998 185.651 118.725 183.309 117.441C181.81 116.627 180.312 115.813 178.812 115C178.13 114.626 177.448 114.252 176.746 113.867C169.487 109.994 162.258 107.804 154 109C147.645 111.21 141.422 114.856 137 120C135.515 123.189 135.515 123.189 135 126C134.34 125.67 133.68 125.34 133 125C133.263 120.602 133.536 116.491 136.731 113.237C139.11 111.708 141.475 110.518 144.062 109.375C144.983 108.952 145.903 108.53 146.851 108.095C161.073 102.215 176.639 103.243 191 108C197.101 109.827 201.799 107.776 207.625 105.812C215.316 103.343 222.943 101.172 230.875 99.6249C232.058 99.3925 232.058 99.3925 233.264 99.1554C242.58 97.4108 251.586 96.8597 261.062 96.9374C262.119 96.9419 263.175 96.9464 264.264 96.9511C266.843 96.9627 269.421 96.9791 272 96.9999C272.251 96.1272 272.503 95.2545 272.762 94.3554C274.054 90.8545 275.619 88.3201 277.812 85.3124C278.812 83.9144 278.812 83.9144 279.832 82.4882C284.258 77.4082 287.657 76.6258 294.312 76.8124Z" fill="#527617"/>
<path d="M204.312 115C206.163 116.011 208.016 117.019 209.869 118.027C211.111 118.703 212.352 119.381 213.593 120.059C220.243 123.693 226.962 127.189 233.691 130.674C234.485 131.087 235.279 131.5 236.098 131.926C236.784 132.281 237.469 132.636 238.176 133.001C239.837 133.911 241.425 134.95 243 136C242.67 137.98 242.34 139.96 242 142C239.36 142.66 236.72 143.32 234 144C234.33 144.33 234.66 144.66 235 145C234.361 146.011 233.721 147.021 233.062 148.063C230.932 151.752 230.345 154.779 230 159C230.566 159.41 231.132 159.82 231.715 160.242C232.448 160.781 233.182 161.32 233.938 161.875C234.668 162.409 235.399 162.942 236.152 163.492C238 165 238 165 239 167C241.483 167.261 243.886 167.421 246.375 167.5C253.596 167.731 253.596 167.731 257 170C255.562 171.563 255.562 171.563 253 173C245.723 173.169 238.815 171.027 232.5 167.563C210.818 156.575 180.047 161.245 157.594 167.777C140.057 173.452 140.057 173.452 127.422 185.863C125.543 190.2 124.069 194.541 122.937 199.125C122 202 122 202 119.941 203.18C118.98 203.586 118.98 203.586 118 204C117.534 192.375 118.963 186.82 126.828 178.223C129.408 175.583 132.124 173.185 134.945 170.809C137.193 168.831 139.239 166.721 141.312 164.563C154.746 150.942 167.127 147.614 185.787 147.481C193.988 147.655 200.981 149.787 208.645 152.531C214.316 154.543 220.018 155.377 226 156C225.456 154.265 224.889 152.537 224.312 150.813C223.999 149.85 223.686 148.887 223.363 147.895C221.747 144.464 219.785 142.555 217 140C215.88 138.85 215.88 138.85 214.738 137.676C207.4 130.527 199.397 125.936 190.364 121.238C187.997 119.998 185.651 118.725 183.309 117.441C181.81 116.627 180.312 115.813 178.812 115C178.13 114.626 177.448 114.252 176.746 113.867C169.487 109.994 162.258 107.805 154 109C147.645 111.21 141.422 114.856 137 120C135.515 123.189 135.515 123.189 135 126C134.34 125.67 133.68 125.34 133 125C133.263 120.603 133.536 116.491 136.731 113.237C139.11 111.708 141.475 110.518 144.062 109.375C144.983 108.953 145.903 108.53 146.851 108.095C166.916 99.7998 186.235 104.992 204.312 115Z" fill="#5E811A"/>
<path d="M289 98C293.251 98.7643 297.501 99.5377 301.75 100.312C303.531 100.633 303.531 100.633 305.348 100.959C330.681 105.597 351.37 113.852 370 132C366.358 133.261 363.755 132.652 360 132C343.399 130.569 328.993 133.159 313.172 138.029C308.096 139.583 302.989 141.014 297.875 142.438C296.993 142.696 296.111 142.955 295.203 143.221C289.952 144.704 285.457 145.258 280 145C279.224 128.698 284.094 113.353 289 98Z" fill="#D73B11"/>
<path d="M251.062 99.8124C252.379 99.8221 252.379 99.8221 253.723 99.8319C256 99.9999 256 99.9999 258 101C259.181 105.882 259.973 110.787 260.723 115.75C260.851 116.592 260.979 117.434 261.112 118.301C261.368 119.999 261.617 121.698 261.859 123.398C262.037 124.589 262.037 124.589 262.219 125.805C262.321 126.516 262.424 127.227 262.529 127.96C263.046 130.198 263.901 131.991 265 134C264.67 134.33 264.34 134.66 264 135C264.602 137.02 265.273 139.021 266 141C266.99 141.495 266.99 141.495 268 142C267.67 142.99 267.34 143.98 267 145C266.01 144.505 266.01 144.505 265 144C265.371 144.516 265.742 145.031 266.125 145.562C267.442 149.231 266.418 151.456 265 155C263.418 156.726 263.418 156.726 261 158C258.197 158.107 255.706 158.059 252.937 157.812C251.858 157.746 251.858 157.746 250.756 157.678C247.084 157.402 245.117 157.078 242 155C241.312 152.375 241.312 152.375 241 150C239.437 151.312 239.437 151.312 238 153C238 153.99 238 154.98 238 156C242.993 158.944 247.336 159.635 253 160C253 160.66 253 161.32 253 162C253.831 161.783 254.663 161.567 255.52 161.344C256.606 161.065 257.693 160.787 258.812 160.5C259.891 160.221 260.97 159.943 262.082 159.656C265 159 265 159 268 159C268.33 158.67 268.66 158.34 269 158C269.99 158 270.98 158 272 158C272.66 156.68 273.32 155.36 274 154C275.32 154.66 276.64 155.32 278 156C277.67 156.99 277.34 157.98 277 159C275.333 159.667 273.667 160.333 272 161C271.67 161.99 271.34 162.98 271 164C264.897 165.074 258.937 165.149 252.75 165.125C251.757 165.129 250.765 165.133 249.742 165.137C248.791 165.135 247.84 165.134 246.859 165.133C245.998 165.132 245.137 165.13 244.249 165.129C242 165 242 165 239 164C239 163.34 239 162.68 239 162C237.02 161.34 235.04 160.68 233 160C233 159.34 233 158.68 233 158C232.01 158 231.02 158 230 158C229.496 152.705 230.811 150.186 234 146C233.01 144.68 232.02 143.36 231 142C232.986 142.293 234.971 142.586 236.957 142.879C239.203 143.139 239.203 143.139 242 142C242.015 140.799 242.029 139.597 242.044 138.36C242.102 133.913 242.179 129.466 242.262 125.02C242.296 123.094 242.324 121.167 242.346 119.241C242.38 116.475 242.432 113.71 242.488 110.945C242.495 110.081 242.501 109.216 242.508 108.325C242.568 105.899 242.568 105.899 243 102C246.271 99.8191 247.274 99.751 251.062 99.8124ZM237 144C238 147 238 147 238 147L237 144Z" fill="#32551A"/>
<path d="M260.562 96.9374C262.076 96.9441 262.076 96.9441 263.619 96.9511C266.079 96.9627 268.54 96.9791 271 96.9999C269.52 102.001 267.368 106.329 264.875 110.875C264.502 111.563 264.13 112.252 263.746 112.961C262.835 114.643 261.918 116.322 261 118C260.67 118 260.34 118 260 118C259.01 109.585 259.01 109.585 258 101C255.092 100.969 255.092 100.969 252.125 100.937C251.034 100.926 249.944 100.914 248.82 100.902C246.048 100.802 246.048 100.802 244 102C243.67 112.89 243.34 123.78 243 135C238.448 134.089 235.643 132.975 231.59 130.867C230.982 130.552 230.374 130.237 229.747 129.913C228.46 129.245 227.175 128.574 225.892 127.9C223.971 126.893 222.046 125.895 220.119 124.898C211.226 120.278 202.346 115.564 194 110C215.997 102.868 237.306 96.7373 260.562 96.9374Z" fill="#DE3103"/>
<path d="M234.871 167.863C240.174 170.695 246.951 172.322 253 172C255.043 170.733 257.047 169.401 259 168C263.663 167.237 266.171 167.834 269.938 170.5C270.948 171.325 271.959 172.15 273 173C267.266 176.186 261.645 176.157 255.25 176.125C254.47 176.129 253.69 176.133 252.887 176.137C247.127 176.127 247.127 176.127 246 175C242.755 174.55 239.511 174.183 236.254 173.838C235.559 173.758 234.864 173.679 234.148 173.598C233.208 173.497 233.208 173.497 232.248 173.395C230 173 230 173 227.013 171.981C221.665 170.418 216.163 170.695 210.637 170.699C209.45 170.695 208.262 170.691 207.039 170.686C204.534 170.68 202.028 170.68 199.523 170.684C195.711 170.687 191.9 170.664 188.088 170.639C185.646 170.636 183.204 170.636 180.762 170.637C179.632 170.627 178.503 170.618 177.339 170.609C170.401 170.649 164.515 171.589 158 174C158.702 170.226 160.113 168.473 163.181 166.084C166.372 164.182 169.675 163.738 173.312 163.25C174.021 163.138 174.729 163.026 175.459 162.91C177.636 162.574 179.815 162.28 182 162C182.723 161.904 183.447 161.808 184.192 161.71C201.191 159.622 219.534 159.449 234.871 167.863Z" fill="#762D12"/>
<path d="M145 190C145.66 190.66 146.32 191.32 147 192C146.732 195.881 144.419 198.111 142 201C139.342 204.533 136.875 207.983 135 212C133.433 214.706 131.844 217.203 129.938 219.688C125.214 227.764 125.743 236.896 126 246C126.99 246 127.98 246 129 246C129 246.99 129 247.98 129 249C127.35 249 125.7 249 124 249C123.01 245.535 123.01 245.535 122 242C121.01 242.495 121.01 242.495 120 243C119.912 239.479 119.859 235.959 119.813 232.438C119.787 231.447 119.762 230.456 119.736 229.436C119.677 223.519 119.932 219.137 123 214C125.031 212.828 125.031 212.828 127 212C128.409 210.047 128.409 210.047 129.5 207.75C131.46 203.993 133.629 200.516 136 197C136.33 196.237 136.66 195.474 137 194.688C138 193 138 193 139.938 192.375C140.958 192.189 140.958 192.189 142 192C142.99 191.34 143.98 190.68 145 190Z" fill="#F09D74"/>
<path d="M231 142C232.986 142.293 234.971 142.586 236.957 142.879C239.203 143.139 239.203 143.139 242 142C242.25 145.25 242.25 145.25 242 149C240 151.25 240 151.25 238 153C238 153.99 238 154.98 238 156C242.993 158.945 247.336 159.635 253 160C253 160.66 253 161.32 253 162C253.831 161.783 254.663 161.567 255.52 161.344C256.606 161.065 257.693 160.787 258.812 160.5C259.891 160.222 260.97 159.943 262.082 159.656C265 159 265 159 268 159C268.495 158.505 268.495 158.505 269 158C269.99 158 270.98 158 272 158C272.66 156.68 273.32 155.36 274 154C275.32 154.66 276.64 155.32 278 156C277.67 156.99 277.34 157.98 277 159C275.333 159.667 273.667 160.333 272 161C271.505 162.485 271.505 162.485 271 164C264.897 165.074 258.937 165.149 252.75 165.125C251.757 165.129 250.765 165.133 249.742 165.137C248.791 165.135 247.84 165.134 246.859 165.133C245.998 165.132 245.137 165.131 244.249 165.129C242 165 242 165 239 164C239 163.34 239 162.68 239 162C237.02 161.34 235.04 160.68 233 160C233 159.34 233 158.68 233 158C232.01 158 231.02 158 230 158C229.496 152.706 230.811 150.186 234 146C233.01 144.68 232.02 143.36 231 142ZM237 144C238 147 238 147 238 147L237 144Z" fill="#244307"/>
<path d="M170.203 171.758C170.892 171.77 171.58 171.782 172.29 171.795C174.528 171.842 176.763 171.917 179 172C180.135 172.04 180.135 172.04 181.294 172.081C185.988 172.256 190.678 172.484 195.368 172.745C197.789 172.877 200.211 172.995 202.633 173.113C204.188 173.197 205.742 173.282 207.297 173.367C208.013 173.401 208.73 173.434 209.468 173.469C213.086 173.684 215.905 174.043 219 176C217.94 175.989 216.881 175.977 215.789 175.965C214.401 175.956 213.013 175.946 211.625 175.938C210.577 175.925 210.577 175.925 209.508 175.912C205.627 175.817 205.627 175.817 202 177C200.563 177.045 199.124 177.039 197.688 177C194.29 176.951 191.331 177.314 188 178C187.01 177.67 186.02 177.34 185 177C182.866 177.22 180.741 177.522 178.625 177.875C177.504 178.058 176.382 178.241 175.227 178.43C173.237 178.782 171.251 179.158 169.273 179.574C167 180 167 180 164 179.938C160.803 180.004 158.904 180.734 156 182C154.341 182.369 152.675 182.713 151 183C150.67 181.35 150.34 179.7 150 178C151.628 177.317 153.255 176.633 154.883 175.949C157.136 174.982 157.136 174.982 159.682 173.456C163.498 171.781 166.051 171.668 170.203 171.758Z" fill="#DA5426"/>
<path d="M291 180C291.99 180 292.98 180 294 180C300.871 186.339 306.303 194.279 310.664 202.5C311.613 204.275 312.613 206.023 313.648 207.75C318.115 215.635 318.717 222.025 318 231C317.67 231 317.34 231 317 231C316.94 229.459 316.94 229.459 316.879 227.887C316.19 217.343 313.619 211.657 306 204C300 197.282 300 197.282 300 195C299.34 195 298.68 195 298 195C297.412 194.248 296.824 193.497 296.219 192.723C293.854 189.82 291.705 188.335 288.5 186.437C284.842 184.262 281.9 182.126 279 179C284.186 176.654 286.158 177.202 291 180Z" fill="#869325"/>
<path d="M337 156C335.54 159.848 333.661 161.212 330 163C329.154 163.165 328.309 163.33 327.438 163.5C324.908 163.836 324.908 163.836 322.938 165.562C321 167 321 167 317 167C315.281 167.714 313.562 168.433 311.871 169.211C310 170 310 170 306.25 171C301.681 172.406 300.598 174.103 298 178C297.67 178.33 297.34 178.66 297 179C296.67 179.66 296.34 180.32 296 181C295.34 181 294.68 181 294 181C293.515 173.853 293.515 173.853 295.563 170.25C303.458 162.961 314.448 159.37 325 158.562C329.147 158.18 333.03 156 337 156Z" fill="#C47150"/>
<path d="M173.278 169.741C174.357 169.735 175.435 169.729 176.546 169.722C178.294 169.728 178.294 169.728 180.078 169.734C181.278 169.733 182.478 169.731 183.714 169.729C186.256 169.727 188.798 169.731 191.34 169.739C195.221 169.75 199.1 169.739 202.98 169.727C205.451 169.728 207.921 169.731 210.391 169.734C211.548 169.73 212.706 169.726 213.898 169.722C219.696 169.756 224.519 170.117 230 172C231.376 172.242 232.759 172.449 234.148 172.598C234.843 172.677 235.538 172.756 236.254 172.838C236.954 172.912 237.654 172.986 238.375 173.063C245.871 173.871 245.871 173.871 247 175C249.657 175.102 252.281 175.141 254.938 175.125C255.706 175.123 256.474 175.121 257.265 175.119C262.9 175.077 268.407 174.71 274 174C274.99 175.485 274.99 175.485 276 177C270.219 178.233 264.507 178.184 258.625 178.188C257.622 178.2 256.619 178.212 255.586 178.225C249.66 178.236 244.687 177.642 239 176C221.885 172.698 204.425 172.767 187.062 172.438C184.915 172.394 182.767 172.351 180.619 172.307C175.413 172.201 170.206 172.099 165 172C168.333 169.778 169.392 169.748 173.278 169.741Z" fill="#A83D1A"/>
<path d="M251.062 99.75C251.94 99.7448 252.818 99.7397 253.723 99.7344C256 100 256 100 258 102C254.317 104.455 252.278 104.182 248.005 104.058C247.012 104.029 247.012 104.029 246 104C246.214 104.632 246.427 105.263 246.647 105.914C249.057 113.718 249.39 120.873 249.25 129C249.245 130.194 249.24 131.387 249.234 132.617C249.172 139.791 248.782 146.869 248 154C247.01 153.67 246.02 153.34 245 153C245 136.5 245 120 245 103C244.34 102.67 243.68 102.34 243 102C246.251 99.8328 247.292 99.7278 251.062 99.75Z" fill="#829971"/>
<path d="M236 177C241.711 176.851 247.42 176.743 253.133 176.671C255.074 176.64 257.014 176.6 258.955 176.547C261.753 176.474 264.549 176.441 267.348 176.414C268.208 176.383 269.069 176.352 269.956 176.32C275.773 176.317 278.645 177.626 282.808 181.708C283.398 182.348 283.398 182.348 284 183C281.396 184.302 280.348 183.762 277.562 183.063C273.111 181.955 270.32 181.795 266.062 183.563C259.076 185.967 251.532 185.307 244.75 182.438C243.842 181.963 242.935 181.489 242 181C242 180.34 242 179.68 242 179C239.03 178.505 239.03 178.505 236 178C236 177.67 236 177.34 236 177Z" fill="#C4552A"/>
<path d="M229 166C231.752 166.382 233.574 166.65 235.75 168.438C240.427 171.685 247.422 172.744 253 172C253.969 171.34 254.939 170.68 255.938 170C259.739 167.517 261.534 167.295 266 168C268.592 169.463 270.678 171.104 273 173C265.42 177.211 253.378 177.655 244.96 175.471C242.938 174.75 242.938 174.75 240.967 173.865C238.978 172.99 237.08 172.429 234.973 171.91C234.24 171.728 233.507 171.546 232.752 171.358C231.637 171.088 231.637 171.088 230.5 170.812C229.768 170.634 229.035 170.455 228.281 170.271C226.522 169.843 224.761 169.421 223 169C223 168.67 223 168.34 223 168C224.98 168 226.96 168 229 168C229 167.34 229 166.68 229 166Z" fill="#73290E"/>
<path d="M285 154C283.59 155.465 282.172 156.921 280.75 158.375C279.961 159.187 279.172 159.999 278.359 160.836C276.246 162.774 274.609 163.896 272 165C271.34 165.33 270.68 165.66 270 166C268 166.04 266 166.043 264 166C264 166.66 264 167.32 264 168C258.221 170.364 254.027 169.766 247.965 168.508C244.973 167.898 244.973 167.898 241.785 168.074C239 168 239 168 236.5 165.688C235.675 164.801 234.85 163.914 234 163C230.834 161.207 230.834 161.207 228 160C228.66 159.34 229.32 158.68 230 158C230.99 158 231.98 158 233 158C233 158.66 233 159.32 233 160C234.98 160.66 236.96 161.32 239 162C239 162.66 239 163.32 239 164C243.021 164.029 247.042 164.047 251.062 164.063C252.196 164.071 253.33 164.079 254.498 164.088C264.536 164.681 264.536 164.681 273.312 161C273.869 160.34 274.426 159.68 275 159C275.66 158.67 276.32 158.34 277 158C277 156.68 277 155.36 277 154C280.287 153.2 281.71 152.903 285 154Z" fill="#355C0E"/>
<path d="M174 105C174 105.66 174 106.32 174 107C179.28 109.31 184.56 111.62 190 114C187 115 187 115 184.914 114.187C184.159 113.796 183.403 113.404 182.625 113C178.746 111.16 177.181 111.059 173 112C171.587 111.575 170.192 111.087 168.812 110.562C161.711 108.035 155.705 107.887 148.812 111.125C143.172 114.278 138.152 117.296 135.562 123.375C135.377 124.241 135.191 125.107 135 126C134.34 125.67 133.68 125.34 133 125C133.232 120.536 133.49 116.444 136.844 113.237C139.336 111.727 141.823 110.525 144.5 109.375C145.431 108.95 146.362 108.526 147.321 108.088C156.292 104.306 164.437 103.949 174 105Z" fill="#648F25"/>
<path d="M273 93C276.034 96.0337 278 98.6376 278 103C276.885 105.603 275.731 108.141 274.5 110.688C274.166 111.389 273.832 112.091 273.488 112.814C272.664 114.545 271.833 116.273 271 118C270.56 117.509 270.121 117.018 269.668 116.512C268.042 114.725 268.042 114.725 265.312 114.812C264.549 114.874 263.786 114.936 263 115C264.528 109.901 266.71 105.343 269.125 100.625C269.498 99.8889 269.87 99.1529 270.254 98.3945C271.166 96.5945 272.082 94.797 273 93Z" fill="#7D9522"/>
<path d="M123 214C123.66 214 124.32 214 125 214C124.992 214.885 124.992 214.885 124.984 215.788C124.963 218.463 124.95 221.138 124.937 223.812C124.929 224.741 124.921 225.67 124.912 226.627C124.907 227.966 124.907 227.966 124.902 229.332C124.894 230.565 124.894 230.565 124.886 231.823C124.913 234.182 124.913 234.182 126 237C126.067 238.561 126.085 240.125 126.062 241.688C126.053 242.496 126.044 243.304 126.035 244.137C126.024 244.752 126.012 245.366 126 246C126.99 246 127.98 246 129 246C129 246.99 129 247.98 129 249C127.35 249 125.7 249 124 249C123.34 246.69 122.68 244.38 122 242C121.34 242.33 120.68 242.66 120 243C119.912 239.479 119.859 235.959 119.812 232.438C119.787 231.447 119.762 230.456 119.736 229.436C119.677 223.469 120.176 219.285 123 214Z" fill="#EE713C"/>
<path d="M243 103C243.66 103 244.32 103 245 103C245.01 103.618 245.021 104.235 245.031 104.871C245.139 111.295 245.254 117.719 245.372 124.143C245.416 126.54 245.457 128.938 245.497 131.336C245.555 134.781 245.619 138.227 245.684 141.672C245.7 142.745 245.717 143.818 245.734 144.924C245.754 145.924 245.774 146.925 245.795 147.956C245.81 148.835 245.826 149.715 245.842 150.621C245.991 152.87 246.375 154.84 247 157C245.35 156.34 243.7 155.68 242 155C241.796 137.654 242.417 120.334 243 103Z" fill="#39611F"/>
<path d="M312 162C311.348 162.315 310.695 162.629 310.023 162.953C307.332 164.271 304.666 165.631 302 167C300.845 167.577 299.69 168.155 298.5 168.75C294.929 171.964 294.575 175.359 294 180C291.068 177.147 288.357 174.349 286 171C291.433 166.199 296.054 164.129 303.125 162.312C304.159 162.04 305.193 161.769 306.258 161.488C309 161 309 161 312 162Z" fill="#994729"/>
<path d="M240 142C240.66 142 241.32 142 242 142C242.25 145.25 242.25 145.25 242 149C240 151.25 240 151.25 238 153C238 153.99 238 154.98 238 156C242.993 158.945 247.336 159.635 253 160C253 160.66 253 161.32 253 162C253.66 162.33 254.32 162.66 255 163C247.027 163.797 240.485 161.853 234 157C233.008 154.453 233.008 154.453 233 152C235.375 149.438 235.375 149.438 238 147C238.787 144.862 238.787 144.862 239 143C239.33 142.67 239.66 142.34 240 142ZM266 158C266.66 158.33 267.32 158.66 268 159C263.519 162.361 260.394 162.274 255 162C255 161.67 255 161.34 255 161C255.71 160.867 256.421 160.734 257.152 160.598C258.071 160.421 258.991 160.244 259.938 160.062C261.312 159.801 261.312 159.801 262.715 159.535C264.953 159.223 264.953 159.223 266 158Z" fill="#183002"/>
<path d="M134 201C135.274 203.547 134.802 204.428 134.062 207.125C133.868 207.849 133.673 208.574 133.473 209.32C133.317 209.875 133.161 210.429 133 211C132.34 211 131.68 211 131 211C130.876 212.052 130.752 213.104 130.625 214.188C130 218 130 218 129.062 220.312C127.697 223.767 127.168 227.235 126.562 230.891C126.377 231.587 126.191 232.283 126 233C125.01 233.495 125.01 233.495 124 234C123.059 215.781 123.059 215.781 129 208C129.754 206.836 130.505 205.67 131.25 204.5C133 202 133 202 134 201Z" fill="#F09063"/>
<path d="M179 176C179 176.66 179 177.32 179 178C177.422 178.216 177.422 178.216 175.812 178.437C173.678 178.752 171.545 179.1 169.438 179.562C167 180 167 180 164 179.937C160.803 180.004 158.904 180.734 156 182C154.341 182.369 152.675 182.713 151 183C150.67 181.35 150.34 179.7 150 178C159.834 175.117 168.87 173.81 179 176Z" fill="#CF7752"/>
<path d="M206 138C210.754 137.668 213.056 138.406 217 141C217.978 141.147 217.978 141.147 218.977 141.297C221 142 221 142 222.484 144.145C223.111 145.465 223.111 145.465 223.75 146.813C224.178 147.685 224.606 148.558 225.047 149.457C226 152 226 152 226 156C224.02 156 222.04 156 220 156C221.32 155.67 222.64 155.34 224 155C223.331 151.887 223.331 151.887 220.938 150.813C220.298 150.544 219.659 150.276 219 150C219 149.34 219 148.68 219 148C218.34 148 217.68 148 217 148C216.67 147.34 216.34 146.68 216 146C215.01 145.67 214.02 145.34 213 145C212.34 144.01 211.68 143.02 211 142C208.437 141.27 208.437 141.27 206 141C206 140.01 206 139.02 206 138Z" fill="#A32500"/>
<path d="M302 194C304.815 194.563 306.539 195.359 308.234 197.715C309.567 200.108 310.776 202.549 312 205C312.544 205.914 313.088 206.828 313.648 207.77C318.134 215.635 318.716 222.039 318 231C317.67 231 317.34 231 317 231C316.96 229.973 316.92 228.945 316.879 227.887C316.19 217.364 313.633 211.633 306 204C304.175 202.044 302.584 200.165 301 198C301.188 195.625 301.188 195.625 302 194Z" fill="#5E791A"/>
<path d="M324 160C317.748 162.892 311.413 165.359 304.918 167.656C301.135 169.398 298.699 171.192 297.172 175.141C297.033 175.837 296.893 176.533 296.75 177.25C296.502 178.487 296.255 179.725 296 181C295.34 181 294.68 181 294 181C293.515 173.853 293.515 173.853 295.562 170.25C302.044 164.267 315.034 157.011 324 160Z" fill="#B25635"/>
<path d="M170.438 171.875C171.145 171.877 171.852 171.879 172.58 171.881C178.751 171.931 184.863 172.349 191 173C187.319 175.454 185.319 175.306 180.926 175.414C180.242 175.433 179.558 175.453 178.854 175.473C176.673 175.532 174.493 175.579 172.312 175.625C170.833 175.663 169.353 175.702 167.873 175.742C164.249 175.838 160.625 175.922 157 176C160.944 171.68 164.883 171.839 170.438 171.875Z" fill="#B55C3A"/>
<path d="M242 174C242.984 174.244 242.984 174.244 243.988 174.492C247.733 175.124 251.403 175.148 255.188 175.125C256.313 175.122 256.313 175.122 257.461 175.119C263.028 175.076 268.473 174.702 274 174C274.66 174.99 275.32 175.98 276 177C270.164 178.241 264.376 178.22 258.438 178.25C256.895 178.281 256.895 178.281 255.322 178.312C245.879 178.361 245.879 178.361 242 175C242 174.67 242 174.34 242 174Z" fill="#903718"/>
<path d="M284 183C281.396 184.302 280.348 183.762 277.562 183.063C273.111 181.955 270.32 181.795 266.062 183.563C260.394 185.523 254.819 185.331 249 184C246.645 182.445 246.645 182.445 245 181C246.897 181.018 246.897 181.018 248.832 181.035C250.492 181.045 252.152 181.054 253.812 181.063C254.646 181.071 255.479 181.079 256.338 181.088C257.542 181.093 257.542 181.093 258.77 181.098C259.508 181.103 260.246 181.108 261.007 181.114C277.625 180.167 277.625 180.167 284 183Z" fill="#DD6939"/>
<path d="M266 168C266.99 168.66 267.98 169.32 269 170C269 170.66 269 171.32 269 172C263.841 173.704 259.557 174.222 254.062 174.125C253.379 174.116 252.695 174.107 251.99 174.098C250.327 174.074 248.663 174.039 247 174C247 173.67 247 173.34 247 173C248.237 172.732 249.475 172.464 250.75 172.188C253.439 171.533 254.861 171.11 257.062 169.375C260.019 167.277 262.48 167.68 266 168Z" fill="#521D09"/>
<path d="M163 107C163 107.33 163 107.66 163 108C161.892 108.095 161.892 108.095 160.762 108.191C151.546 109.304 143.186 112.783 137 120C135.8 123.1 135.8 123.1 135 126C134.34 125.67 133.68 125.34 133 125C133.51 116.394 133.51 116.394 136.801 113.315C139.168 111.942 141.533 110.855 144.062 109.813C144.884 109.42 145.706 109.028 146.553 108.623C152.517 105.972 156.605 105.783 163 107Z" fill="#79943A"/>
<path d="M241 167C243.105 167.114 245.209 167.242 247.312 167.375C248.484 167.445 249.656 167.514 250.863 167.586C254 168 254 168 257 170C255.562 171.562 255.562 171.562 253 173C248.219 173.105 244.191 172.315 240 170C240.33 169.01 240.66 168.02 241 167Z" fill="#4F7816"/>
<path d="M220 167C220 167.33 220 167.66 220 168C215.337 168.049 210.674 168.086 206.011 168.11C204.424 168.12 202.837 168.133 201.25 168.151C198.971 168.175 196.693 168.186 194.414 168.195C193.703 168.206 192.991 168.216 192.258 168.226C190.504 168.227 188.75 168.122 187 168C186.34 167.34 185.68 166.68 185 166C196.857 164.812 208.222 164.881 220 167Z" fill="#6D200A"/>
<path d="M172 240C172 240.99 172 241.98 172 243C171.34 243.66 170.68 244.32 170 245C170 245.99 170 246.98 170 248C166.936 251.589 164.396 253.422 160 255C158.636 255.958 157.292 256.947 156 258C155.34 257.67 154.68 257.34 154 257C156.149 254.686 158.119 252.926 160.812 251.25C164.909 248.358 167.814 244.836 171 241C171.33 240.67 171.66 240.34 172 240Z" fill="#F37B3A"/>
<path d="M287.5 178C290.589 180.471 293.266 183.139 296 186C295.67 186.66 295.34 187.32 295 188C294.629 187.505 294.257 187.01 293.875 186.5C292.042 184.695 292.042 184.695 289.25 185.125C284.808 184.954 282.245 182.929 279 180C279 179.67 279 179.34 279 179C284.227 176.691 284.227 176.691 287.5 178Z" fill="#799522"/>
<path d="M332 160C330 163 330 163 327.625 163.5C326.326 163.748 326.326 163.748 325 164C324.319 164.516 323.639 165.031 322.938 165.563C321 167 321 167 317 167C314.658 167.979 312.325 168.98 310 170C307.062 170.688 307.062 170.688 305 171C308.266 167.074 311.8 165.771 316.562 164.375C331.154 159.954 331.154 159.954 332 160Z" fill="#D87651"/>
<path d="M295 132C296.082 135.246 295.781 135.874 295 139C295.33 139.99 295.66 140.98 296 142C293.099 143.934 292.103 144.301 288.812 144.625C287.554 144.749 286.296 144.873 285 145C285.66 144.67 286.32 144.34 287 144C287.689 141.651 287.689 141.651 288.125 138.938C288.293 138.018 288.46 137.099 288.633 136.152C288.754 135.442 288.875 134.732 289 134C289.33 135.32 289.66 136.64 290 138C290.66 138 291.32 138 292 138C292 137.01 292 136.02 292 135C292.66 135 293.32 135 294 135C294.33 134.01 294.66 133.02 295 132Z" fill="#C13811"/>
<path d="M129 208C129.625 209.875 129.625 209.875 130 212C129.34 212.66 128.68 213.32 128 214C127.572 215.863 127.572 215.863 127.438 218C127.363 218.794 127.288 219.588 127.211 220.406C127.065 222.198 126.925 223.989 126.789 225.781C126.714 226.678 126.64 227.576 126.563 228.5C126.502 229.335 126.441 230.171 126.379 231.031C126.254 231.681 126.129 232.331 126 233C125.34 233.33 124.68 233.66 124 234C123.043 215.468 123.043 215.468 129 208Z" fill="#F08455"/>
<path d="M145 190C145.66 190.66 146.32 191.32 147 192C146.733 195.877 144.451 198.141 142 201C141.082 202.103 140.165 203.207 139.25 204.312C138.136 205.643 138.136 205.643 137 207C136 204 136 204 136.855 201.66C141.28 193.031 141.28 193.031 145 190Z" fill="#F4AE8A"/>
<path d="M251.062 99.75C251.94 99.7448 252.818 99.7397 253.723 99.7344C256 100 256 100 258 102C254.838 104.108 253.493 104.338 249.812 104.625C248.911 104.7 248.01 104.775 247.082 104.852C246.395 104.901 245.708 104.95 245 105C245 104.34 245 103.68 245 103C244.34 102.67 243.68 102.34 243 102C246.251 99.8328 247.292 99.7278 251.062 99.75Z" fill="#859329"/>
<path d="M313 165C311.736 167.528 310.728 167.734 308.188 168.875C303.511 171.125 300.884 173.675 298 178C297.188 175.813 297.188 175.813 297 173C299.918 169.012 307.79 162.395 313 165Z" fill="#CA6541"/>
<path d="M333 147C330.334 150.45 327.088 150.94 323 152C322.67 152.33 322.34 152.66 322 153C320.481 153.072 318.958 153.084 317.438 153.063C316.611 153.054 315.785 153.045 314.934 153.035C314.296 153.024 313.657 153.012 313 153C315.836 150.164 319.254 149.462 323 148.313C323.737 148.075 324.475 147.837 325.234 147.592C330.751 145.876 330.751 145.876 333 147Z" fill="#B9643E"/>
<path d="M295 164C295.66 164.33 296.32 164.66 297 165C295.793 166.083 295.793 166.083 294.562 167.188C291.977 170.025 291.32 171.272 291 175C289.68 174.34 288.36 173.68 287 173C287 172.01 287 171.02 287 170C289.537 167.737 292.171 165.886 295 164Z" fill="#7F361B"/>
<path d="M285 154C282.03 156.97 279.06 159.94 276 163C275.01 162.67 274.02 162.34 273 162C273.66 161.423 274.32 160.845 275 160.25C277.443 158.003 277.443 158.003 277 154C280.287 153.2 281.71 152.903 285 154Z" fill="#2B520B"/>
<path d="M238 165C249.385 165.99 249.385 165.99 261 167C257 170 257 170 254.195 169.855C253.182 169.635 252.169 169.415 251.125 169.188C246.981 168.313 243.24 167.88 239 168C238.67 167.01 238.34 166.02 238 165Z" fill="#406912"/>
<path d="M324 160C318.737 162.458 313.633 164.562 308 166C309.02 163.218 309.631 162.19 312.312 160.812C316.67 159.495 319.581 158.757 324 160Z" fill="#B16042"/>
<path d="M312 152C312 152.99 312 153.98 312 155C310.337 155.475 308.673 155.949 307.008 156.418C305.098 156.971 303.205 157.578 301.312 158.188C298 159 298 159 294 158C299.94 156.02 305.88 154.04 312 152Z" fill="#954924"/>
<path d="M172 108C178.69 108.446 184.028 111.073 190 114C187 115 187 115 184.914 114.188C184.159 113.796 183.403 113.404 182.625 113C178.944 111.246 176.987 110.671 173 112C172.34 111.67 171.68 111.34 171 111C171.33 110.01 171.66 109.02 172 108Z" fill="#729726"/>
<path d="M173 175C175.959 174.946 178.916 174.906 181.875 174.875C182.717 174.858 183.559 174.841 184.426 174.824C185.231 174.818 186.037 174.811 186.867 174.805C187.983 174.789 187.983 174.789 189.121 174.773C191 175 191 175 193 177C189.713 177.8 188.29 178.097 185 177C184.366 177.164 183.732 177.327 183.078 177.496C179.504 178.363 176.484 176.987 173 176C173 175.67 173 175.34 173 175Z" fill="#DB673C"/>
<path d="M273 162C273.99 162.33 274.98 162.66 276 163C276.33 163.99 276.66 164.98 277 166C275.855 166.217 275.855 166.217 274.688 166.438C271.918 166.963 271.918 166.963 269 168C268.67 168.66 268.34 169.32 268 170C266.68 169.34 265.36 168.68 264 168C264 167.34 264 166.68 264 166C264.566 165.879 265.132 165.758 265.715 165.633C266.815 165.381 266.815 165.381 267.938 165.125C268.668 164.963 269.399 164.8 270.152 164.633C272.207 164.17 272.207 164.17 273 162Z" fill="#426D13"/>
<path d="M132 174C132.66 174.33 133.32 174.66 134 175C129.71 179.29 125.42 183.58 121 188C121 184.096 122.218 183.275 124.812 180.438C125.52 179.652 126.228 178.867 126.957 178.059C129 176 129 176 132 174Z" fill="#506915"/>
<path d="M332 160C330 163 330 163 327.625 163.5C326.759 163.665 325.892 163.83 325 164C323.644 164.969 322.306 165.964 321 167C320.34 167 319.68 167 319 167C319 166.01 319 165.02 319 164C327.262 159.408 327.262 159.408 332 160Z" fill="#D7815D"/>
<path d="M140 114C139.136 118.664 136.594 122.109 134 126C132.958 122.874 133.001 121.952 133.75 118.875C133.91 118.171 134.07 117.467 134.234 116.742C134.487 116.167 134.74 115.592 135 115C138 114 138 114 140 114Z" fill="#859D4C"/>
<path d="M289 134C290.746 137.216 291.204 139.32 291 143C291.66 143.33 292.32 143.66 293 144C290.36 144.33 287.72 144.66 285 145C285.66 144.67 286.32 144.34 287 144C287.689 141.651 287.689 141.651 288.125 138.938C288.293 138.018 288.46 137.099 288.633 136.152C288.754 135.442 288.875 134.732 289 134Z" fill="#9C310B"/>
<path d="M274 174C274.66 174.99 275.32 175.98 276 177C270.06 177.495 270.06 177.495 264 178C265.997 174.006 269.823 173.45 274 174Z" fill="#A0421E"/>
<path d="M163 167C158.599 170.123 154.205 171.036 149 172C149 171.34 149 170.68 149 170C150.955 169.303 152.914 168.618 154.875 167.937C155.966 167.555 157.056 167.172 158.18 166.777C161 166 161 166 163 167Z" fill="#A86339"/>
<path d="M275 155C275.99 155.33 276.98 155.66 278 156C277.67 156.99 277.34 157.98 277 159C275.333 159.667 273.667 160.333 272 161C271.67 161.99 271.34 162.98 271 164C269.02 164 267.04 164 265 164C268.75 162 268.75 162 271 162C271 161.01 271 160.02 271 159C271.99 159 272.98 159 274 159C274.33 157.68 274.66 156.36 275 155Z" fill="#254A09"/>
<path d="M151 179C154.3 179 157.6 179 161 179C157.1 181.925 155.617 182.475 151 183C151 181.68 151 180.36 151 179Z" fill="#D68761"/>
<path d="M288.008 185.707C288.706 186.072 289.405 186.437 290.125 186.813C290.829 187.17 291.533 187.527 292.258 187.895C294 189 294 189 295 191C293.373 190.55 291.748 190.09 290.125 189.625C289.22 189.37 288.315 189.115 287.383 188.852C285 188 285 188 283 186C286 185 286 185 288.008 185.707Z" fill="#D68052"/>
<path d="M143 255C146.63 255 150.26 255 154 255C154 255.66 154 256.32 154 257C151.03 257.66 148.06 258.32 145 259C144.34 257.68 143.68 256.36 143 255Z" fill="#F06B2C"/>
<path d="M337 156C335.25 159.875 335.25 159.875 333 161C331.323 160.721 329.654 160.392 328 160C330.689 156.907 332.924 156 337 156Z" fill="#CC7856"/>
<path d="M259 168C260.65 168 262.3 168 264 168C263.67 168.99 263.34 169.98 263 171C261.02 171.33 259.04 171.66 257 172C257.66 170.68 258.32 169.36 259 168Z" fill="#3F1605"/>
<path d="M229 166C233.314 166.479 235.166 167.746 238 171C234.7 170.34 231.4 169.68 228 169C228.33 168.01 228.66 167.02 229 166Z" fill="#682206"/>
<path d="M292.125 184.813C294 186 294 186 295 188C294.01 188.33 293.02 188.66 292 189C289.312 187.063 289.312 187.063 287 185C290 184 290 184 292.125 184.813Z" fill="#909824"/>
<path d="M282 153C282.99 153.33 283.98 153.66 285 154C284.01 154.66 283.02 155.32 282 156C281.34 155.34 280.68 154.68 280 154C280.66 153.67 281.32 153.34 282 153ZM276 160C276.66 160.33 277.32 160.66 278 161C276.02 161.99 276.02 161.99 274 163C274.66 162.01 275.32 161.02 276 160Z" fill="#345E0F"/>
<path d="M145 190C145.66 190.66 146.32 191.32 147 192C145.71 193.376 144.373 194.708 143 196C142.34 196 141.68 196 141 196C142.152 193.532 143.048 191.952 145 190Z" fill="#F1A780"/>
</svg>
