<svg width="800" height="800" viewBox="0 0 800 800" fill="none" xmlns="http://www.w3.org/2000/svg">
<path d="M400 500V66.6667M400 66.6667L500 183.333M400 66.6667L300 183.333" stroke="#F4F6F8" stroke-width="50" stroke-linecap="round" stroke-linejoin="round"/>
<path d="M266.667 733.34H533.333C627.613 733.34 674.753 733.34 704.043 704.05C733.333 674.763 733.333 627.62 733.333 533.34V500.007C733.333 405.727 733.333 358.587 704.043 329.297C678.43 303.684 639.167 300.469 566.667 300.065M233.333 300.065C160.832 300.469 121.569 303.684 95.956 329.296C66.6667 358.587 66.6667 405.727 66.6667 500.007V533.34C66.6667 627.62 66.6667 674.763 95.956 704.05C105.949 714.043 118.021 720.627 133.333 724.967" stroke="#F4F6F8" stroke-width="50" stroke-linecap="round"/>
</svg>
